<?xml version="1.0" encoding="UTF-8"?>
<svg width="109px" height="109px" viewBox="0 0 109 109" version="1.1" xmlns="http://www.w3.org/2000/svg" xmlns:xlink="http://www.w3.org/1999/xlink">
    <!-- Generator: sketchtool 47.1 (45422) - http://www.bohemiancoding.com/sketch -->
    <title>498C13E3-3E51-48C4-AB80-BE4A640AF122</title>
    <desc>Created with sketchtool.</desc>
    <defs></defs>
    <g id="Page-1" stroke="none" stroke-width="1" fill="none" fill-rule="evenodd">
        <g id="Upload_empty" transform="translate(-1084.000000, -352.000000)">
            <g id="Group-57" transform="translate(1084.000000, 352.000000)">
                <g id="Group-39">
                    <g id="Document-flat-circle-icon-with-long-shadow">
                        <path d="M54.1706551,108.183225 C24.3403771,108.183225 0.158085569,84.0013651 0.158085569,54.1706551 C0.158085569,24.3405932 24.3403771,0.158085569 54.1706551,0.158085569 C84.000933,0.158085569 108.183225,24.3405932 108.183225,54.1706551 C108.183225,84.0013651 84.000933,108.183225 54.1706551,108.183225 Z" id="Fill-4" fill="#7D9CB8"></path>
                        <path d="M29.5212558,19.2600919 C28.2193675,19.2600919 27.1643703,20.3114371 27.1643703,21.6095709 L27.1643703,87.3899954 C27.1643703,88.6876955 28.2193675,89.7399081 29.5212558,89.7399081 L79.4793968,89.7399081 C80.7806325,89.7399081 81.8356297,88.6876955 81.8356297,87.3899954 L81.8356297,33.7479675 L67.3042942,19.2600919 L29.5212558,19.2600919" id="Fill-8" fill="#FFFFFF"></path>
                        <path d="M79.5077388,89.7399081 L54.8293449,89.7399081 L54.8293449,78.2139288 L71.9079231,78.2139288 L71.9079231,73.5665839 L54.8293449,73.5665839 L54.8293449,69.6925675 L71.9079231,69.6925675 L71.9079231,65.0452226 L54.8293449,65.0452226 L54.8293449,61.1707725 L71.9079231,61.1707725 L71.9079231,56.5236444 L54.8293449,56.5236444 L54.8293449,52.6494112 L71.9079231,52.6494112 L71.9079231,48.0022831 L54.8293449,48.0022831 L54.8293449,44.1282668 L71.9079231,44.1282668 L71.9079231,39.4809218 L54.8293449,39.4809218 L54.8293449,19.2600919 L67.4790849,19.2600919 L81.8356297,33.7479675 L67.4790849,19.2600919 L67.0421756,31.2891902 C67.0862319,32.5858059 68.1624945,33.7074143 69.4457143,33.794159 L81.8356297,33.7479675 L81.8356297,87.3899954 C81.8356297,88.6876955 80.7933226,89.7399081 79.5077388,89.7399081" id="Fill-9" fill="#F2F2F2"></path>
                        <path d="M69.0401895,33.0925792 C67.7831899,33.0100218 66.7289187,31.942555 66.6857626,30.7085287 L67.1137445,19.2600919 L81.1769398,33.0486174 L69.0401895,33.0925792" id="Fill-10" fill="#D9D9D9"></path>
                        <path d="M67.7148898,29.9534719 L67.3444525,19.2600919 L81.1769398,33.0925792 L70.030692,32.3457445 C68.7943137,32.2629239 67.757752,31.1914326 67.7148898,29.9534719" id="Fill-11" fill="#FFFFFF"></path>
                        <polygon id="Fill-12" fill="#E5E5E5" points="37.7034083 43.6316171 54.8293449 43.6316171 54.8293449 39.020788 37.7034083 39.020788"></polygon>
                        <polygon id="Fill-13" fill="#D9D9D9" points="54.8293449 43.6316171 71.9552816 43.6316171 71.9552816 39.020788 54.8293449 39.020788"></polygon>
                        <polygon id="Fill-14" fill="#E5E5E5" points="37.7034083 52.8532753 54.8293449 52.8532753 54.8293449 48.2424462 37.7034083 48.2424462"></polygon>
                        <polygon id="Fill-15" fill="#D9D9D9" points="54.8293449 52.8532753 71.9552816 52.8532753 71.9552816 48.2424462 54.8293449 48.2424462"></polygon>
                        <polygon id="Fill-16" fill="#E5E5E5" points="37.7034083 61.4162437 54.8293449 61.4162437 54.8293449 56.8054146 37.7034083 56.8054146"></polygon>
                        <polygon id="Fill-17" fill="#D9D9D9" points="54.8293449 61.4162437 71.9552816 61.4162437 71.9552816 56.8054146 54.8293449 56.8054146"></polygon>
                        <polygon id="Fill-18" fill="#E5E5E5" points="37.7034083 69.3205221 54.8293449 69.3205221 54.8293449 64.709693 37.7034083 64.709693"></polygon>
                        <polygon id="Fill-19" fill="#D9D9D9" points="54.8293449 69.3205221 71.9552816 69.3205221 71.9552816 64.709693 54.8293449 64.709693"></polygon>
                        <polygon id="Fill-20" fill="#E5E5E5" points="37.7034083 78.5421803 54.8293449 78.5421803 54.8293449 73.9313512 37.7034083 73.9313512"></polygon>
                        <polygon id="Fill-21" fill="#D9D9D9" points="54.8293449 78.5421803 71.9552816 78.5421803 71.9552816 73.9313512 54.8293449 73.9313512"></polygon>
                    </g>
                    <g id="Group-38" transform="translate(16.625332, 44.290307)">
                        <circle id="Oval-5" fill="#FFFFFF" cx="10.8683829" cy="10.209693" r="8.89231327"></circle>
                        <g id="success" fill-rule="nonzero" fill="#5D7891">
                            <path d="M16.8699506,2.89080405 C13.0155781,-0.963601351 6.74515179,-0.963601351 2.89077934,2.89080405 C-0.963593113,6.74435995 -0.963593113,13.0165003 2.89077934,16.8700948 C4.81756012,18.797703 7.34895289,19.7606962 9.88034566,19.7606962 C12.4117384,19.7606962 14.9423203,18.797703 16.869912,16.8700948 C20.7242844,13.0165003 20.7242844,6.74435995 16.8699506,2.89080405 Z M15.2906818,7.68353824 L9.37265042,13.6016599 C9.20779061,13.7665211 8.99137247,13.8493876 8.77491471,13.8493876 C8.55849657,13.8493876 8.34203881,13.7665211 8.17717899,13.6016599 L4.79545243,10.2199044 C4.46490058,9.8893497 4.46490058,9.35501704 4.79545243,9.02446236 C5.12600429,8.69390768 5.66033238,8.69390768 5.99088423,9.02446236 L8.77491471,11.8085166 L14.09525,6.48813585 C14.4258019,6.15758117 14.96013,6.15758117 15.2906818,6.48813585 C15.6212337,6.8186509 15.6212337,7.35298356 15.2906818,7.68353824 Z" id="Shape"></path>
                        </g>
                    </g>
                </g>
            </g>
        </g>
    </g>
</svg>