<?xml version="1.0" encoding="UTF-8"?>
<svg width="34px" height="43px" viewBox="0 0 34 43" version="1.1" xmlns="http://www.w3.org/2000/svg" xmlns:xlink="http://www.w3.org/1999/xlink">
    <!-- Generator: sketchtool 50.2 (55047) - http://www.bohemiancoding.com/sketch -->
    <title>4C37A02F-6FBB-422F-846C-21895E171D69</title>
    <desc>Created with sketchtool.</desc>
    <defs></defs>
    <g id="Page-1" stroke="none" stroke-width="1" fill="none" fill-rule="evenodd">
        <g id="Імпортування_суб'єктів_господарювання" transform="translate(-522.000000, -362.000000)" fill="#DFECF6">
            <g id="Group-10" transform="translate(341.000000, 362.000000)">
                <path d="M203.173913,11.826087 L203.173913,1.47826087 L213.521739,11.826087 L203.173913,11.826087 Z M206.130435,26.9782609 L200.032609,26.9782609 L200.032609,32.5217391 L195.967391,32.5217391 L195.967391,26.9782609 L189.869565,26.9782609 L189.869565,23.2826087 L195.967391,23.2826087 L195.967391,17.7391304 L200.032609,17.7391304 L200.032609,23.2826087 L206.130435,23.2826087 L206.130435,26.9782609 Z M205.960928,0 L184.942029,0 C182.768,0 181,1.74985771 181,3.8972332 L181,38.972332 C181,41.1216561 182.768,42.8695652 184.942029,42.8695652 L211.057971,42.8695652 C213.232,42.8695652 215,41.1216561 215,38.972332 L215,8.93635573 L205.960928,0 Z" id="Fill-42-Copy-2"></path>
            </g>
        </g>
    </g>
</svg>