<svg xmlns="http://www.w3.org/2000/svg" xmlns:xlink="http://www.w3.org/1999/xlink" width="230" height="101" viewBox="0 0 230 101">
    <defs>
        <path id="a" d="M0 .089h229.795v184.684H0z"/>
        <path id="c" d="M0 185.063h229.795V.38H0z"/>
    </defs>
    <g fill="none" fill-rule="evenodd">
        <g transform="translate(0 .29)">
            <mask id="b" fill="#fff">
                <use xlink:href="#a"/>
            </mask>
            <path fill="#B3E5FC" d="M205.024 40.457C196.83 28.446 175.967-2.137 151.618.217c-25.393 2.457-25.926 37.97-59.504 50.039C62.41 60.933 45.601 39.332 24.801 51.63 2.31 64.93-6.75 107.168 5.457 136.166c21.09 50.095 103.163 54.783 151.816 43.584 20.416-4.7 49.994-11.508 64.62-37.39 23.368-41.353-12.069-94.866-16.87-101.903z" mask="url(#b)"/>
        </g>
        <path fill="#80CBC4" d="M172.484 30.425H57.399c-2.052 0-3.716-1.699-3.716-3.794V13.18c0-2.096 1.664-3.794 3.716-3.794h115.085c2.052 0 3.715 1.698 3.715 3.794v13.45c0 2.096-1.663 3.795-3.715 3.795"/>
        <mask id="d" fill="#fff">
            <use xlink:href="#c"/>
        </mask>
        <path fill="#004D40" d="M65.616 37.191h3.58v-7.514h-3.58zM160.686 37.191h3.58v-7.514h-3.58z" mask="url(#d)"/>
        <path fill="#FFF" d="M46.557 160.742h136.769V55.202H46.557z" mask="url(#d)"/>
        <path fill="#4DB6AC" d="M43.928 94.67c-6.465 0-11.706-5.41-11.706-12.085 0-6.675 5.24-12.086 11.706-12.086 6.465 0 11.706 5.411 11.706 12.086 0 6.675-5.24 12.085-11.706 12.085z" mask="url(#d)"/>
        <path fill="#FFF" d="M79.305 82.585c0 6.675-5.24 12.085-11.706 12.085-6.465 0-11.706-5.41-11.706-12.085 0-6.675 5.24-12.086 11.706-12.086 6.465 0 11.706 5.411 11.706 12.086" mask="url(#d)"/>
        <path fill="#4DB6AC" d="M91.27 94.67c-6.465 0-11.706-5.41-11.706-12.085 0-6.675 5.24-12.086 11.706-12.086 6.465 0 11.706 5.411 11.706 12.086 0 6.675-5.24 12.085-11.706 12.085z" mask="url(#d)"/>
        <path fill="#FFF" d="M126.647 82.585c0 6.675-5.24 12.085-11.706 12.085-6.465 0-11.706-5.41-11.706-12.085 0-6.675 5.24-12.086 11.706-12.086 6.465 0 11.706 5.411 11.706 12.086" mask="url(#d)"/>
        <path fill="#4DB6AC" d="M150.318 82.585c0 6.675-5.24 12.085-11.706 12.085-6.465 0-11.706-5.41-11.706-12.085 0-6.675 5.241-12.086 11.706-12.086s11.706 5.411 11.706 12.086" mask="url(#d)"/>
        <path fill="#FFF" d="M173.99 82.585c0 6.675-5.241 12.085-11.707 12.085-6.465 0-11.706-5.41-11.706-12.085 0-6.675 5.241-12.086 11.706-12.086 6.466 0 11.707 5.411 11.707 12.086" mask="url(#d)"/>
        <path fill="#4DB6AC" d="M197.615 82.567c0 6.675-5.195 12.103-11.66 12.103-6.466 0-11.707-5.41-11.707-12.085 0-6.674 5.241-12.086 11.706-12.086 6.466 0 11.66 5.393 11.66 12.068" mask="url(#d)"/>
        <g fill="#1A1A1A" mask="url(#d)">
            <path d="M55.634 82.585c0 6.675-5.24 12.085-11.706 12.085-6.465 0-11.706-5.41-11.706-12.085 0-6.675 5.24-12.086 11.706-12.086 6.465 0 11.706 5.411 11.706 12.086M79.305 82.585c0 6.675-5.24 12.085-11.706 12.085-6.465 0-11.706-5.41-11.706-12.085 0-6.675 5.24-12.086 11.706-12.086 6.465 0 11.706 5.411 11.706 12.086M102.976 82.585c0 6.675-5.24 12.085-11.706 12.085-6.465 0-11.706-5.41-11.706-12.085 0-6.675 5.24-12.086 11.706-12.086 6.465 0 11.706 5.411 11.706 12.086M126.647 82.585c0 6.675-5.24 12.085-11.706 12.085-6.465 0-11.706-5.41-11.706-12.085 0-6.675 5.24-12.086 11.706-12.086 6.465 0 11.706 5.411 11.706 12.086M150.318 82.585c0 6.675-5.24 12.085-11.706 12.085-6.465 0-11.706-5.41-11.706-12.085 0-6.675 5.241-12.086 11.706-12.086s11.706 5.411 11.706 12.086M173.99 82.585c0 6.675-5.241 12.085-11.707 12.085-6.465 0-11.706-5.41-11.706-12.085 0-6.675 5.241-12.086 11.706-12.086 6.466 0 11.707 5.411 11.707 12.086M197.615 82.567c0 6.675-5.195 12.103-11.66 12.103-6.466 0-11.707-5.41-11.707-12.085 0-6.674 5.241-12.086 11.706-12.086 6.466 0 11.66 5.393 11.66 12.068"/>
        </g>
        <path fill="#0F793D" d="M55.65 81.867h-23.4l9.992-44.773c.388-1.655 1.837-2.822 3.504-2.822h17.74l-7.837 47.595z" mask="url(#d)"/>
        <path fill="#FFF" d="M79.313 81.612l-23.68.257 7.853-47.597h20.582z" mask="url(#d)"/>
        <path fill="#0F793D" d="M103.065 81.612l-23.41.034 4.413-47.374h20.582z" mask="url(#d)"/>
        <path fill="#FFF" d="M126.817 81.612h-23.752l1.585-47.34h20.582z" mask="url(#d)"/>
        <path fill="#0F793D" d="M150.334 81.554h-23.346l-1.756-47.283h20.582z" mask="url(#d)"/>
        <path fill="#FFF" d="M174.32 81.612H150.57l-4.755-47.34h20.582z" mask="url(#d)"/>
        <path fill="#0F793D" d="M197.615 81.608l-23.294.004-7.925-47.34h17.741c1.666 0 3.115 1.167 3.503 2.822l9.975 44.514z" mask="url(#d)"/>
        <path fill="#1A1A1A" d="M88.272 160.742H61.347v-46.464c0-7.592 6.027-13.746 13.462-13.746s13.463 6.154 13.463 13.746v46.464z" mask="url(#d)"/>
        <path fill="#FFF" d="M72.221 23.759l-.012-4.687-2.227 3.815h-1.089l-2.227-3.714v4.586h-2.252v-8.845h2.017l3.043 5.105 2.97-5.105h2.017l.025 8.845zM77.43 23.76h2.352V16.91H77.43v6.848zm.137-7.973a1.189 1.189 0 0 1-.396-.91c0-.362.132-.665.396-.91.264-.244.61-.366 1.04-.366.428 0 .775.115 1.038.347.264.232.396.529.396.89 0 .38-.132.694-.396.942-.263.249-.61.373-1.039.373-.429 0-.775-.122-1.04-.366zM82.603 16.911h2.338v2.54h2.413v-2.54h2.35v6.848h-2.35v-2.4H84.94v2.4h-2.338zM92.526 23.76h2.351V16.91h-2.35v6.848zm.136-7.973a1.188 1.188 0 0 1-.396-.91c0-.362.132-.665.396-.91.264-.244.61-.366 1.04-.366.428 0 .775.115 1.039.347.264.232.396.529.396.89 0 .38-.132.694-.396.942-.264.249-.61.373-1.04.373-.428 0-.775-.122-1.039-.366zM97.5 21.08h3.613v-1.844H97.5zM110.665 16.911v6.848h-2.338v-4.94h-2.252v4.94h-2.339V16.91zM115.806 18.819c-.243.21-.398.497-.463.86h2.746c-.066-.363-.22-.65-.464-.86-.243-.21-.547-.316-.91-.316-.362 0-.666.105-.909.316m4.449 2.122h-4.875c.098.354.29.626.574.815.285.19.642.285 1.071.285.322 0 .6-.047.835-.14.235-.092.473-.244.711-.454l1.238 1.314c-.652.741-1.605 1.111-2.858 1.111-.784 0-1.473-.151-2.067-.454a3.357 3.357 0 0 1-1.38-1.263c-.325-.54-.488-1.15-.488-1.833 0-.673.159-1.278.476-1.813a3.355 3.355 0 0 1 1.318-1.257c.56-.303 1.192-.455 1.893-.455.669 0 1.275.141 1.82.424.543.282.975.69 1.292 1.225.318.535.476 1.169.476 1.901 0 .017-.012.216-.036.594" mask="url(#d)"/>
        <path fill="#A8DCD9" d="M125.909 21.32h-.792v2.439h-2.351V16.91h2.35v2.527h.842l1.646-2.527h2.487l-2.252 3.285 2.4 3.563h-2.771zM135.499 22.154c.206-.134.354-.332.445-.593v-.594h-1.015c-.685 0-1.027.231-1.027.694 0 .211.078.38.235.506.157.126.372.19.644.19s.51-.068.718-.203m1.917-4.58c.586.518.879 1.312.879 2.382v3.803h-2.19v-.885c-.339.666-.998.999-1.98.999-.52 0-.97-.093-1.349-.278a2.011 2.011 0 0 1-.86-.752 2.024 2.024 0 0 1-.29-1.08c0-.649.243-1.152.73-1.51.486-.358 1.237-.537 2.252-.537h1.336c-.042-.724-.516-1.087-1.423-1.087-.322 0-.648.053-.978.158-.33.106-.61.25-.84.436l-.793-1.63c.372-.253.823-.448 1.355-.587a6.302 6.302 0 0 1 1.602-.209c1.114 0 1.964.26 2.55.777M145.682 21.529c.264-.29.396-.689.396-1.194s-.132-.903-.396-1.194a1.31 1.31 0 0 0-1.015-.436c-.413 0-.75.145-1.015.436-.264.29-.395.689-.395 1.194s.131.903.395 1.194c.264.29.602.436 1.015.436.413 0 .75-.145 1.015-.436m1.144-4.296c.5.29.895.704 1.188 1.238.293.535.44 1.156.44 1.864 0 .708-.147 1.329-.44 1.864a3.144 3.144 0 0 1-1.188 1.238c-.5.29-1.054.436-1.664.436-.784 0-1.407-.24-1.869-.72v3.057h-2.35v-9.299h2.239v.682c.437-.53 1.098-.796 1.98-.796.61 0 1.165.146 1.664.436M150.816 16.911h2.339v2.54h2.413v-2.54h2.35v6.848h-2.35v-2.4h-2.413v2.4h-2.339zM162.732 19.577c0 .27.08.467.24.594.162.126.407.189.737.189h1.25v-1.554h-1.237c-.66 0-.99.257-.99.77zm4.318-2.666v6.848h-2.091V21.9h-1.064l-1.188 1.858h-2.487l1.485-2.186c-.445-.202-.786-.478-1.02-.828-.236-.349-.354-.768-.354-1.257 0-.816.297-1.45.891-1.901.594-.45 1.411-.676 2.45-.676h3.378z" mask="url(#d)"/>
        <path fill="#CC4D00" d="M99.063 99.824l2.613.02s4.527.465 4.48 1.643c-.004.092-3.735.072-7.131.044 0 0-.101-1.307.038-1.707" mask="url(#d)"/>
        <path fill="#FFCDD2" d="M113.043 36.827c0 2.41-1.913 4.364-4.273 4.364-2.36 0-4.273-1.954-4.273-4.364s1.913-4.363 4.273-4.363c2.36 0 4.273 1.954 4.273 4.363M127.06 25.575s-.344-.903-.246-1.354c.098-.451 1.105-.927 1.105-.927s-.32 2.105-.86 2.28" mask="url(#d)"/>
        <path fill="#485058" d="M125.097 21.471l.54-.511s5.16 5.677 4.89 5.933c-.27.256-5.43-5.422-5.43-5.422" mask="url(#d)"/>
        <path fill="#FFF" d="M125.486 21.582s-.747.468-1.313-.192c-.567-.66-.309-1.998-.707-2.51 0 0 3.565.827 2.02 2.702" mask="url(#d)"/>
        <path fill="#FFCDD2" d="M126.791 27.532s.072-1.907.366-2.509c.295-.602.467-1.504.663-1.905.197-.4 2.872.251 3.167.652.294.401-.491 3.008-1.203 3.484-.712.476-.76.677-.884.978l-2.109-.7z" mask="url(#d)"/>
        <path fill="#043927" d="M108.606 69.456c.263-.718.921-2.782-.047-3.996-.708-.886-2.215-.891-5.23-.902-1.912-.007-2.869-.006-3.39.298-1.892 1.107-2.146 5.03-1.051 9.609a45.625 45.625 0 0 1 .159 25.348l2.705.26s2.748-10.507 3.492-13.922c.614-2.825 2.248-10.317 2.88-13.897l.482-2.798z" mask="url(#d)"/>
        <path fill="#EA5F00" d="M126.791 27.532s-4.83 11.382-7.803 12.141c-2.972.759-10.404 1.518-10.404 1.518v.01l-.113-.007a6.963 6.963 0 0 0-1.795-.069c-.532.097-1.364.33-2.114.975-1.078.928-1.398 2.2-1.551 2.885-.973 4.35-.208 7.353-1.115 11.382-.26 1.158-.196.341-2.6 7.209-1.286 3.67-1.836 5.42-1.116 6.07.52.47 1.066-.204 3.344-.379 2.314-.178 3.034-.602 5.713-1.003.776-.115 2.996-.455 3.208-.416l-.003-13.378c.328-2.913 1.175-5.426 1.171-8.512 2.94-.912 7.284-2.302 9.605-3.25 3.715-1.517 7.802-14.797 7.802-14.797l-2.229-.38z" mask="url(#d)"/>
        <path fill="#333A42" d="M105.24 32.464c.372-.38 1.486-2.656 2.973-2.276 1.486.38 1.486 2.276 1.114 3.035-.371.759-.743 2.656-.371 3.415.371.759.743 1.138.743 1.138l-.372.38s-.371-1.518-1.114-1.139c-.744.38-1.312 1.038-.372 1.518 1.486.759.743 2.656.743 2.656l-.743.38s-2.601.378-3.716-2.277c-1.114-2.656-.371-5.312 1.115-6.83" mask="url(#d)"/>
        <path fill="#FFCDD2" d="M111.37 33.685h1c.208 0 .332.236.216.413l-.473.725-.743-1.138z" mask="url(#d)"/>
    </g>
</svg>
