<?xml version="1.0" encoding="UTF-8"?>
<svg width="80px" height="71px" viewBox="0 0 80 71" version="1.1" xmlns="http://www.w3.org/2000/svg" xmlns:xlink="http://www.w3.org/1999/xlink">
    <!-- Generator: sketchtool 50.2 (55047) - http://www.bohemiancoding.com/sketch -->
    <title>20A1DB93-ED8A-41E4-B91E-B0B818EE66B2</title>
    <desc>Created with sketchtool.</desc>
    <defs></defs>
    <g id="Page-1" stroke="none" stroke-width="1" fill="none" fill-rule="evenodd">
        <g id="Додавання_суб'єкта_господарювання_об'єктів_немає" transform="translate(-501.000000, -908.000000)" fill="#DFECF6">
            <g id="Group-10" transform="translate(501.000000, 908.000000)">
                <polyline id="Fill-30" points="49.7856115 49.3628777 9.60661871 49.3628777 9.60661871 39.2123741 49.7856115 29.2431655 49.7856115 49.3628777"></polyline>
                <polygon id="Fill-31" points="59.2713669 37.3997122 67.6092086 37.3997122 67.6092086 2.77928058 59.2713669 2.77928058"></polygon>
                <path d="M42.0215827,61.6883453 L47.6405755,61.6883453 L47.6405755,56.0693525 L42.0215827,56.0693525 L42.0215827,61.6883453 Z M34.0463309,61.6883453 L39.6653237,61.6883453 L39.6653237,56.0693525 L34.0463309,56.0693525 L34.0463309,61.6883453 Z M26.0707914,61.6883453 L31.6900719,61.6883453 L31.6900719,56.0693525 L26.0707914,56.0693525 L26.0707914,61.6883453 Z M18.0955396,61.6883453 L23.7145324,61.6883453 L23.7145324,56.0693525 L18.0955396,56.0693525 L18.0955396,61.6883453 Z M10.1202878,61.6883453 L15.7392806,61.6883453 L15.7392806,56.0693525 L10.1202878,56.0693525 L10.1202878,61.6883453 Z M2.1447482,61.6883453 L7.76374101,61.6883453 L7.76374101,56.0693525 L2.1447482,56.0693525 L2.1447482,61.6883453 Z M0,70.7513669 L49.7856115,70.7513669 L49.7856115,51.7191367 L0,51.7191367 L0,70.7513669 Z" id="Fill-32"></path>
                <path d="M65.887482,51.1752518 L72.2313669,51.1752518 L72.2313669,44.8313669 L65.887482,44.8313669 L65.887482,51.1752518 Z M65.887482,60.2382734 L72.2313669,60.2382734 L72.2313669,53.8943885 L65.887482,53.8943885 L65.887482,60.2382734 Z M55.283741,51.1752518 L61.6279137,51.1752518 L61.6279137,44.8313669 L55.283741,44.8313669 L55.283741,51.1752518 Z M55.283741,60.2382734 L61.6279137,60.2382734 L61.6279137,53.8943885 L55.283741,53.8943885 L55.283741,60.2382734 Z M72.1407194,39.2123741 L51.84,39.2123741 L51.84,70.7513669 L79.9346763,70.7513669 L79.9346763,50.0877698 L72.1407194,39.2123741 Z" id="Fill-33"></path>
                <polyline id="Fill-34" points="56.9151079 9.12345324 56.9151079 11.4797122 35.3453237 11.4797122 35.3453237 30.3306475 32.6264748 31.2368345 32.6264748 9.12345324 56.9151079 9.12345324"></polyline>
                <polygon id="Fill-35" points="37.7018705 18.9113669 56.9151079 18.9113669 56.9151079 16.7364029 37.7018705 16.7364029"></polygon>
                <polygon id="Fill-36" points="58.0025899 1.81266187 68.8782734 1.81266187 68.8782734 0 58.0025899 0"></polygon>
            </g>
        </g>
    </g>
</svg>