<?xml version="1.0" encoding="UTF-8"?>
<svg width="80px" height="76px" viewBox="0 0 80 76" version="1.1" xmlns="http://www.w3.org/2000/svg" xmlns:xlink="http://www.w3.org/1999/xlink">
    <!-- Generator: sketchtool 50.2 (55047) - http://www.bohemiancoding.com/sketch -->
    <title>99799EF8-3FAC-4913-8EC5-D9BB9B6FDE01</title>
    <desc>Created with sketchtool.</desc>
    <defs></defs>
    <g id="Page-1" stroke="none" stroke-width="1" fill="none" fill-rule="evenodd">
        <g id="Додавання_суб'єкта_господарювання_відокремлені_підрозділи_немає" transform="translate(-501.000000, -1389.000000)" fill="#DFECF6">
            <g id="Group-8" transform="translate(171.000000, 1330.000000)">
                <g id="Group-22" transform="translate(330.000000, 59.000000)">
                    <polyline id="Fill-44" points="17.2095082 46.557377 17.2095082 75.6072131 0 75.6072131 0 55.7816393 17.2095082 46.557377"></polyline>
                    <polygon id="Fill-45" points="21.9672131 16.2459016 26.3731148 16.2459016 26.3731148 0 21.9672131 0"></polygon>
                    <polygon id="Fill-46" points="34.4262295 16.4701639 38.8318033 16.4701639 38.8318033 6.55737705 34.4262295 6.55737705"></polygon>
                    <polyline id="Fill-47" points="50.1639344 27.2131148 67.1967213 27.2131148 67.1967213 41.1183607 65.0331148 41.1183607 65.0331148 29.9665574 50.1639344 29.9665574 50.1639344 27.2131148"></polyline>
                    <path d="M39.8488525,28.7190164 L44.0213115,28.7190164 L44.0213115,24.5465574 L39.8488525,24.5465574 L39.8488525,28.7190164 Z M39.8488525,38.3298361 L44.0213115,38.3298361 L44.0213115,34.157377 L39.8488525,34.157377 L39.8488525,38.3298361 Z M39.8488525,47.9403279 L44.0213115,47.9403279 L44.0213115,43.7678689 L39.8488525,43.7678689 L39.8488525,47.9403279 Z M39.8488525,57.5511475 L44.0213115,57.5511475 L44.0213115,53.3786885 L39.8488525,53.3786885 L39.8488525,57.5511475 Z M39.8488525,67.1619672 L44.0213115,67.1619672 L44.0213115,62.9895082 L39.8488525,62.9895082 L39.8488525,67.1619672 Z M33.8967213,28.7190164 L38.0691803,28.7190164 L38.0691803,24.5465574 L33.8967213,24.5465574 L33.8967213,28.7190164 Z M33.8967213,38.3298361 L38.0691803,38.3298361 L38.0691803,34.157377 L33.8967213,34.157377 L33.8967213,38.3298361 Z M33.8967213,47.9403279 L38.0691803,47.9403279 L38.0691803,43.7678689 L33.8967213,43.7678689 L33.8967213,47.9403279 Z M33.8967213,57.5511475 L38.0691803,57.5511475 L38.0691803,53.3786885 L33.8967213,53.3786885 L33.8967213,57.5511475 Z M33.8967213,67.1619672 L38.0691803,67.1619672 L38.0691803,62.9895082 L33.8967213,62.9895082 L33.8967213,67.1619672 Z M27.944918,28.7190164 L32.117377,28.7190164 L32.117377,24.5465574 L27.944918,24.5465574 L27.944918,28.7190164 Z M27.944918,38.3298361 L32.117377,38.3298361 L32.117377,34.157377 L27.944918,34.157377 L27.944918,38.3298361 Z M27.944918,47.9403279 L32.117377,47.9403279 L32.117377,43.7678689 L27.944918,43.7678689 L27.944918,47.9403279 Z M27.944918,57.5511475 L32.117377,57.5511475 L32.117377,53.3786885 L27.944918,53.3786885 L27.944918,57.5511475 Z M27.944918,67.1619672 L32.117377,67.1619672 L32.117377,62.9895082 L27.944918,62.9895082 L27.944918,67.1619672 Z M21.9927869,28.7190164 L26.1652459,28.7190164 L26.1652459,24.5465574 L21.9927869,24.5465574 L21.9927869,28.7190164 Z M21.9927869,38.3298361 L26.1652459,38.3298361 L26.1652459,34.157377 L21.9927869,34.157377 L21.9927869,38.3298361 Z M21.9927869,47.9403279 L26.1652459,47.9403279 L26.1652459,43.7678689 L21.9927869,43.7678689 L21.9927869,47.9403279 Z M21.9927869,57.5511475 L26.1652459,57.5511475 L26.1652459,53.3786885 L21.9927869,53.3786885 L21.9927869,57.5511475 Z M21.9927869,67.1619672 L26.1652459,67.1619672 L26.1652459,62.9895082 L21.9927869,62.9895082 L21.9927869,67.1619672 Z M18.6885246,75.8045902 L48.0140984,75.8045902 L48.0140984,17.704918 L18.6885246,17.704918 L18.6885246,75.8045902 Z" id="Fill-48"></path>
                    <path d="M79.9022951,50.5782868 C79.9022951,49.8982868 79.9022951,49.2546802 79.9022951,48.6661556 C79.9022951,40.2681228 50.1639344,40.9563196 50.1639344,48.6661556 C50.1639344,49.2405819 50.1639344,49.8868114 50.1639344,50.5782868 L79.9022951,50.5782868" id="Fill-49"></path>
                    <path d="M50.1639344,53.1147541 C50.1639344,62.0665574 50.1639344,75.8160656 50.1639344,75.8160656 L79.9022951,75.8160656 C79.9022951,75.8160656 79.9022951,62.3298361 79.9022951,53.1147541 L50.1639344,53.1147541" id="Fill-50"></path>
                </g>
            </g>
        </g>
    </g>
</svg>