<?xml version="1.0" encoding="UTF-8"?>
<svg width="126px" height="126px" viewBox="0 0 126 126" version="1.1" xmlns="http://www.w3.org/2000/svg" xmlns:xlink="http://www.w3.org/1999/xlink">
    <!-- Generator: sketchtool 47.1 (45422) - http://www.bohemiancoding.com/sketch -->
    <title>BE37BFC0-CA98-4418-BC45-F30D5EEBAB12</title>
    <desc>Created with sketchtool.</desc>
    <defs>
        <polygon id="path-1" points="0 149.985 150 149.985 150 0 0 0"></polygon>
    </defs>
    <g id="Page-1" stroke="none" stroke-width="1" fill="none" fill-rule="evenodd">
        <g id="Mobile_create_doc_success" transform="translate(-97.000000, -194.000000)">
            <g id="Group-40" transform="translate(20.000000, 154.000000)">
                <g id="Group-39" transform="translate(65.000000, 28.000000)">
                    <g id="Document-flat-circle-icon-with-long-shadow">
                        <g id="Group-3">
                            <mask id="mask-2" fill="white">
                                <use xlink:href="#path-1"></use>
                            </mask>
                            <g id="Clip-2"></g>
                        </g>
                        <path d="M74.6192893,137.055838 C40.1365827,137.055838 12.1827411,109.102495 12.1827411,74.6192893 C12.1827411,40.1368325 40.1365827,12.1827411 74.6192893,12.1827411 C109.101996,12.1827411 137.055838,40.1368325 137.055838,74.6192893 C137.055838,109.102495 109.101996,137.055838 74.6192893,137.055838 Z" id="Fill-4" fill="#2081DA"></path>
                        <path d="M46.1254883,34.2639594 C44.6205533,34.2639594 43.4010152,35.4792759 43.4010152,36.9798709 L43.4010152,113.019628 C43.4010152,114.519721 44.6205533,115.736041 46.1254883,115.736041 L103.875266,115.736041 C105.379447,115.736041 106.598985,114.519721 106.598985,113.019628 L106.598985,51.0114119 L89.8012942,34.2639594 L46.1254883,34.2639594" id="Fill-8" fill="#FFFFFF"></path>
                        <path d="M103.908028,115.736041 L75.3807107,115.736041 L75.3807107,102.412431 L95.1229202,102.412431 L95.1229202,97.0402713 L75.3807107,97.0402713 L75.3807107,92.5620505 L95.1229202,92.5620505 L95.1229202,87.1898903 L75.3807107,87.1898903 L75.3807107,82.7111682 L95.1229202,82.7111682 L95.1229202,77.3392587 L75.3807107,77.3392587 L75.3807107,72.8607872 L95.1229202,72.8607872 L95.1229202,67.4888777 L75.3807107,67.4888777 L75.3807107,63.010657 L95.1229202,63.010657 L95.1229202,57.6384968 L75.3807107,57.6384968 L75.3807107,34.2639594 L90.0033459,34.2639594 L106.598985,51.0114119 L90.0033459,34.2639594 L89.4982947,48.1691556 C89.5492221,49.6679959 90.7933423,50.964534 92.2766973,51.0648076 L106.598985,51.0114119 L106.598985,113.019628 C106.598985,114.519721 105.394116,115.736041 103.908028,115.736041" id="Fill-9" fill="#F2F2F2"></path>
                        <path d="M91.8079254,50.2538071 C90.3548801,50.1583738 89.1361813,48.9244214 89.0862944,47.4979323 L89.5810258,34.2639594 L105.837563,50.2029889 L91.8079254,50.2538071" id="Fill-10" fill="#D9D9D9"></path>
                        <path d="M90.2759276,46.6251143 L89.8477157,34.2639594 L105.837563,50.2538071 L92.95291,49.3904937 C91.523702,49.2947561 90.3254748,48.0561514 90.2759276,46.6251143" id="Fill-11" fill="#FFFFFF"></path>
                        <polygon id="Fill-12" fill="#E5E5E5" points="55.5837563 62.4365482 75.3807107 62.4365482 75.3807107 57.106599 55.5837563 57.106599"></polygon>
                        <polygon id="Fill-13" fill="#D9D9D9" points="75.3807107 62.4365482 95.177665 62.4365482 95.177665 57.106599 75.3807107 57.106599"></polygon>
                        <polygon id="Fill-14" fill="#E5E5E5" points="55.5837563 73.0964467 75.3807107 73.0964467 75.3807107 67.7664975 55.5837563 67.7664975"></polygon>
                        <polygon id="Fill-15" fill="#D9D9D9" points="75.3807107 73.0964467 95.177665 73.0964467 95.177665 67.7664975 75.3807107 67.7664975"></polygon>
                        <polygon id="Fill-16" fill="#E5E5E5" points="55.5837563 82.9949239 75.3807107 82.9949239 75.3807107 77.6649746 55.5837563 77.6649746"></polygon>
                        <polygon id="Fill-17" fill="#D9D9D9" points="75.3807107 82.9949239 95.177665 82.9949239 95.177665 77.6649746 75.3807107 77.6649746"></polygon>
                        <polygon id="Fill-18" fill="#E5E5E5" points="55.5837563 92.1319797 75.3807107 92.1319797 75.3807107 86.8020305 55.5837563 86.8020305"></polygon>
                        <polygon id="Fill-19" fill="#D9D9D9" points="75.3807107 92.1319797 95.177665 92.1319797 95.177665 86.8020305 75.3807107 86.8020305"></polygon>
                        <polygon id="Fill-20" fill="#E5E5E5" points="55.5837563 102.791878 75.3807107 102.791878 75.3807107 97.4619289 55.5837563 97.4619289"></polygon>
                        <polygon id="Fill-21" fill="#D9D9D9" points="75.3807107 102.791878 95.177665 102.791878 95.177665 97.4619289 75.3807107 97.4619289"></polygon>
                    </g>
                    <g id="Group-38" transform="translate(31.218274, 63.197970)">
                        <circle id="Oval-5" fill="#FFFFFF" cx="12.5634518" cy="11.8020305" r="10.2791878"></circle>
                        <g id="success" fill-rule="nonzero" fill="#2FD174">
                            <path d="M19.5010438,3.3416634 C15.0455307,-1.1138878 7.79714795,-1.1138878 3.34163483,3.3416634 C-1.11387828,7.79623261 -1.11387828,15.0465967 3.34163483,19.5012105 C5.56892271,21.7294548 8.49511986,22.8426396 11.421317,22.8426396 C14.3475142,22.8426396 17.2727739,21.7294548 19.5009992,19.5012105 C23.9565123,15.0465967 23.9565123,7.79623261 19.5010438,3.3416634 Z M17.6754671,8.88188824 L10.8344399,15.7230196 C10.643868,15.9135932 10.3936966,16.0093839 10.1434794,16.0093839 C9.89330797,16.0093839 9.64309073,15.9135932 9.45251884,15.7230196 L5.54336703,11.8138344 C5.16126122,11.4317253 5.16126122,10.8140564 5.54336703,10.4319473 C5.92547284,10.0498382 6.54313651,10.0498382 6.92524232,10.4319473 L10.1434794,13.6502119 L16.2935918,7.50004694 C16.6756976,7.11793787 17.2933612,7.11793787 17.6754671,7.50004694 C18.0575729,7.88211021 18.0575729,8.49977916 17.6754671,8.88188824 Z" id="Shape"></path>
                        </g>
                    </g>
                </g>
            </g>
        </g>
    </g>
</svg>