<?xml version="1.0" encoding="UTF-8"?>
<svg width="15px" height="16px" viewBox="0 0 15 16" version="1.1" xmlns="http://www.w3.org/2000/svg" xmlns:xlink="http://www.w3.org/1999/xlink">
    <!-- Generator: sketchtool 47.1 (45422) - http://www.bohemiancoding.com/sketch -->
    <title>47D441C1-F95A-4361-BC56-6E3830E2CDCD</title>
    <desc>Created with sketchtool.</desc>
    <defs></defs>
    <g id="Page-1" stroke="none" stroke-width="1" fill="none" fill-rule="evenodd">
        <g id="Mobile_main_1_result" transform="translate(-39.000000, -190.000000)">
            <g id="Group-31" transform="translate(39.000000, 187.000000)">
                <g id="Fill-1904" transform="translate(0.000000, 3.500000)">
                    <g id="Group-24">
                        <circle id="Oval" fill="#FFFFFF" cx="8.38235294" cy="7.5" r="5.73529412"></circle>
                        <path d="M8.25,8.9055 L8.25,9.75 L6.75,9.75 L6.75,7.5 L7.5,7.5 C8.32725,7.5 9,6.82725 9,6 C9,5.172 8.32725,4.5 7.5,4.5 C6.67275,4.5 6,5.172 6,6 L4.5,6 C4.5,4.3455 5.8455,3 7.5,3 C9.1545,3 10.5,4.3455 10.5,6 C10.5,7.395 9.54225,8.571 8.25,8.9055 M7.5,12.1875 C6.9825,12.1875 6.5625,11.7675 6.5625,11.25 C6.5625,10.7325 6.9825,10.3125 7.5,10.3125 C8.0175,10.3125 8.4375,10.7325 8.4375,11.25 C8.4375,11.7675 8.0175,12.1875 7.5,12.1875 M7.5,0 C3.3645,0 0,3.3645 0,7.5 C0,11.63625 3.3645,15 7.5,15 C11.6355,15 15,11.63625 15,7.5 C15,3.3645 11.6355,0 7.5,0" id="Fill-1904" fill="#2FD174"></path>
                    </g>
                </g>
            </g>
        </g>
    </g>
</svg>