<?xml version="1.0" encoding="UTF-8"?>
<svg width="126px" height="126px" viewBox="0 0 126 126" version="1.1" xmlns="http://www.w3.org/2000/svg" xmlns:xlink="http://www.w3.org/1999/xlink">
    <!-- Generator: sketchtool 47.1 (45422) - http://www.bohemiancoding.com/sketch -->
    <title>819986B8-55A2-40D3-9F4A-A580490E5B9E</title>
    <desc>Created with sketchtool.</desc>
    <defs></defs>
    <g id="Page-1" stroke="none" stroke-width="1" fill="none" fill-rule="evenodd">
        <g id="Law" transform="translate(-127.000000, -155.000000)">
            <g id="Group-4" transform="translate(127.000000, 155.000000)">
                <g id="Group-39-Copy" fill="#2081DA">
                    <g id="Document-flat-circle-icon-with-long-shadow">
                        <path d="M62.6192893,125.055838 C28.1365827,125.055838 0.182741117,97.1024954 0.182741117,62.6192893 C0.182741117,28.1368325 28.1365827,0.182741117 62.6192893,0.182741117 C97.1019959,0.182741117 125.055838,28.1368325 125.055838,62.6192893 C125.055838,97.1024954 97.1019959,125.055838 62.6192893,125.055838 Z" id="Fill-4"></path>
                    </g>
                </g>
                <g id="Group-11" transform="translate(33.000000, 25.000000)">
                    <g id="Group-7" transform="translate(0.000000, 2.000000)">
                        <g id="Group-50" fill="#2FD174">
                            <rect id="Rectangle" x="0" y="0" width="61" height="69" rx="3"></rect>
                        </g>
                        <path d="M31,53 C30.7802011,52.8712419 30.0623833,52.4478221 29.6900481,52.1932038 L29.6817959,52.1872763 C27.6074598,50.595484 26.169925,48.324007 25.633461,45.7908646 L25.6113895,45.6866068 L19,45.6866068 L19,16.8845104 L19.2923011,17.0436303 C19.8089203,17.3247906 20.3132266,17.6479042 20.7911386,18.0040141 C23.6265841,20.1168322 25.4309526,23.3290006 25.7414612,26.8169945 L26.7316698,35.0232641 L26.0650031,34.9524636 L26.0570783,34.9525295 C25.2289681,34.9651089 24.5102335,35.5583181 24.3480696,36.3630726 C24.256705,36.8163933 24.3476111,37.2790662 24.6039559,37.6658673 C24.8662606,38.0613621 25.2685267,38.3302063 25.7366146,38.4229385 L26.7764679,38.6307955 L26.8223139,38.5449129 C27.1713986,37.891441 27.5401316,37.1956863 27.8740872,36.5061225 L27.8778203,36.4976923 C28.9296591,33.8752425 29.8928185,31.0218185 29.818548,27.9272119 C29.8005371,26.258955 29.6840227,24.5648806 29.5713069,22.9265246 C29.4641582,21.3683871 29.3532764,19.7571658 29.3267512,18.1674151 C29.3267512,16.6934479 29.8685202,15.2736842 30.8523758,14.1662329 L31,14 L31.1476897,14.1662329 C32.1314798,15.2736842 32.6732488,16.6935137 32.6732488,18.1639903 C32.6465272,19.7601954 32.5357763,21.3699019 32.4286276,22.9265246 C32.3159773,24.5640903 32.1995284,26.2573743 32.1815175,27.9245116 C32.1071815,31.0218844 33.0702754,33.8752425 34.1221142,36.4976923 L34.1258473,36.5061225 C34.4589514,37.1938422 34.8280774,37.8903872 35.1776206,38.5449129 L35.2234666,38.6307955 L36.2631234,38.4230702 C36.7314078,38.3302722 37.1338049,38.0612962 37.3959786,37.6658673 C37.6523889,37.2791321 37.743295,36.8165909 37.6519304,36.3633361 C37.489832,35.5585157 36.7711629,34.9651089 35.9429217,34.9523319 L35.9350624,34.952266 L35.2682647,35.0232641 L36.2580149,26.8210779 C36.5689819,23.3290006 38.3734159,20.1167663 41.2087959,18.0040141 C41.6869044,17.6478383 42.1912107,17.3247247 42.7077644,17.0436303 L43,16.8845104 L43,45.6866068 L36.3884141,45.6866068 L36.3663425,45.7909304 C35.830075,48.3239411 34.3925402,50.5954181 32.3186626,52.1868812 L32.308904,52.1939283 C31.9373547,52.4480856 31.2197989,52.8713078 31,53 Z M28.0796738,45.8545521 C28.3846154,46.9261091 28.890952,47.9168548 29.5847333,48.7991935 L29.818417,49.0965555 L29.818417,45.6866068 L28.031863,45.6866068 L28.0796738,45.8545521 Z M32.1815175,49.0964896 L32.4152667,48.7991935 C33.1087206,47.91725 33.6151226,46.9265043 33.9203262,45.8546179 L33.9682025,45.6866068 L32.1815175,45.6866068 L32.1815175,49.0964896 Z M39.8420605,37.9702765 C39.4119593,39.2820941 38.3549465,40.2858803 37.0146707,40.65536 L37.0077938,40.6572041 L36.2629924,40.8254787 L36.2948882,40.9559492 C36.4757835,41.6952379 36.579199,42.4531653 36.602384,43.2087217 L36.6062482,43.336426 L40.636834,43.336426 L40.636834,37.8797836 L39.8717294,37.8797836 L39.8420605,37.9702765 Z M33.8244425,41.3867454 C32.983168,41.6237788 32.3494449,42.3290175 32.2100075,43.1833652 L32.1849887,43.336426 L34.2428857,43.336426 L34.2371877,43.1992377 C34.2136752,42.6276308 34.1294495,42.0496355 33.9868684,41.4813875 L33.9539902,41.3503243 L33.8244425,41.3867454 Z M28.0130661,41.4813875 C27.870616,42.0494379 27.7863903,42.6273674 27.7628123,43.1992377 L27.7571143,43.336426 L29.8149458,43.336426 L29.789927,43.1833652 C29.6504241,42.3289516 29.0167011,41.6237788 28.1754265,41.3867454 L28.0459443,41.3503243 L28.0130661,41.4813875 Z M21.363035,43.336426 L25.3938173,43.336426 L25.3976815,43.2087217 C25.4207355,42.4533629 25.5240855,41.6954355 25.7049153,40.9559492 L25.7368111,40.8254787 L24.9843469,40.6551624 C23.6449226,40.2858803 22.5880407,39.2820941 22.1579395,37.9702765 L22.1282706,37.8797836 L21.363035,37.8797836 L21.363035,43.336426 Z M30.8766087,35.4852125 C30.4303959,36.7352526 29.8711399,37.9503865 29.2143629,39.0967615 L29.1386515,39.2289444 L29.2797262,39.284992 C29.9002849,39.5315094 30.4473589,39.8989474 30.9056882,40.3770318 L31,40.475428 L31.0943118,40.3770318 C31.5527066,39.8988815 32.0997151,39.5314435 32.7201428,39.284992 L32.861283,39.2289444 L32.7855716,39.0967615 C32.1291875,37.9511109 31.5698661,36.736043 31.1231948,35.4852125 L30.999869,35.1399038 L30.8766087,35.4852125 Z M40.3990896,22.1703754 C39.4569539,23.5026099 38.8519828,25.0600229 38.6494744,26.674208 L37.8750041,33.0983472 L37.9515015,33.1414861 C38.8524413,33.6496031 39.5238891,34.4656856 39.8421914,35.4393733 L39.8717949,35.529998 L40.636834,35.529998 L40.636834,21.8342213 L40.3990896,22.1703754 Z M21.363035,35.529998 L22.1282051,35.529998 L22.1578741,35.4393733 C22.4761764,34.4656856 23.1475587,33.6496031 24.0484985,33.1414861 L24.1249959,33.0983472 L23.3503291,26.673286 C23.1478207,25.0592985 22.5428497,23.5024124 21.6007794,22.1703754 L21.363035,21.8342213 L21.363035,35.529998 L21.363035,35.529998 Z" id="Fill-14" fill="#FFFFFF"></path>
                    </g>
                    <path d="M47,0 L54,0 L54,0 C54.5522847,-1.01453063e-16 55,0.44771525 55,1 L55,20 L50.5,15 L46,20 L46,1 L46,1 C46,0.44771525 46.4477153,1.01453063e-16 47,0 Z" id="Rectangle-8" fill="#FFDC1A"></path>
                </g>
            </g>
        </g>
    </g>
</svg>