<?xml version="1.0" encoding="UTF-8"?>
<svg width="60px" height="60px" viewBox="0 0 60 60" version="1.1" xmlns="http://www.w3.org/2000/svg" xmlns:xlink="http://www.w3.org/1999/xlink">
    <!-- Generator: sketchtool 50.2 (55047) - http://www.bohemiancoding.com/sketch -->
    <title>76743E83-7F3B-4005-8FDE-0A7EB633AA1B</title>
    <desc>Created with sketchtool.</desc>
    <defs>
        <polygon id="path-1" points="0 0.234312271 29.7106432 0.234312271 29.7106432 59.999965 0 59.999965"></polygon>
    </defs>
    <g id="Page-1" stroke="none" stroke-width="1" fill="none" fill-rule="evenodd">
        <g id="IAS_hall_of_fame" transform="translate(-239.000000, -794.000000)">
            <g id="Group-11-Copy-4" transform="translate(269.000000, 824.000000) rotate(-330.000000) translate(-269.000000, -824.000000) translate(239.000000, 794.000000)">
                <g id="Group-3">
                    <mask id="mask-2" fill="white">
                        <use xlink:href="#path-1"></use>
                    </mask>
                    <g id="Clip-2"></g>
                    <path d="M3.8940603,30.1171658 C3.8940603,15.843196 15.4592864,4.22520603 29.7106432,4.13234171 L29.7106432,1.45013065 C27.0995879,1.3798794 24.3166734,-0.25881407 21.9151658,0.383095477 C19.3767739,1.06088442 17.7769749,4.01023116 15.5533568,5.2961608 C13.2989849,6.60048241 9.9501407,6.52510553 8.12059296,8.35525628 C6.29074372,10.1851055 6.36672362,13.5342513 5.06119598,15.7886231 C3.77496482,18.0116382 0.826824121,19.6108342 0.148432161,22.1495276 C-0.507045226,24.603799 1.22752764,27.4569648 1.22752764,30.1171658 C1.22752764,32.7770653 -0.507045226,35.6302312 0.147527638,38.0845025 C0.826824121,40.6234975 3.77496482,42.222995 5.06240201,44.445407 C6.36672362,46.7009849 6.29074372,50.0486231 8.12149749,51.8796784 C9.9501407,53.7092261 13.2989849,53.6335477 15.5533568,54.9387739 C17.7769749,56.224402 19.3767739,59.1725427 21.9142613,59.8509347 C24.3154673,60.4934472 27.0995879,58.8547538 29.7106432,58.7838995 L29.7106432,56.1022915 C15.4592864,56.0085226 3.8940603,44.3914372 3.8940603,30.1171658" id="Fill-1" fill="#E1E1E1" mask="url(#mask-2)"></path>
                </g>
                <path d="M5.12562814,30.0500503 C5.12562814,43.7384925 16.2156784,54.8807035 29.881206,54.9741709 L29.881206,5.12562814 C16.2156784,5.21909548 5.12562814,16.361608 5.12562814,30.0500503" id="Fill-4" fill="#E1E1E1"></path>
                <path d="M3.91959799,29.9044221 C3.91959799,44.1786935 15.4848241,55.7957789 29.7361809,55.8895477 L29.7361809,54.8285427 C16.0703518,54.7350754 4.98030151,43.5928643 4.98030151,29.9044221 C4.98030151,16.2159799 16.0703518,5.07346734 29.7361809,4.98 L29.7361809,3.91959799 C15.4848241,4.01246231 3.91959799,15.6304523 3.91959799,29.9044221" id="Fill-6" fill="#FFFFFF"></path>
                <path d="M37.9887437,59.616179 C40.5283417,58.937787 42.1269347,55.9896463 44.3505528,54.7028122 C46.6046231,53.3987921 49.9537688,53.4744704 51.7833166,51.6449227 C53.6131658,49.8138674 53.538392,46.4650232 54.8427136,44.2106513 C56.1289447,41.9882393 59.0770854,40.3887418 59.7563819,37.8497468 C60.4109548,35.3954755 58.6763819,32.5423096 58.6763819,29.8824101 C58.6763819,27.2222091 60.4109548,24.3690433 59.7563819,21.914772 C59.0770854,19.3760785 56.1289447,17.776581 54.8427136,15.5535659 C53.538392,13.2982895 53.6131658,9.95034984 51.7833166,8.11959607 C49.9537688,6.29034984 46.6046231,6.36572673 44.3505528,5.06140512 C42.1269347,3.77517396 40.5283417,0.827033259 37.9899497,0.148339792 C35.5350754,-0.508343625 32.6831156,1.22803828 30.021407,1.22803828 C29.9647236,1.22803828 29.9071357,1.216581 29.8492462,1.21537497 L29.8492462,3.89758602 C29.9071357,3.89758602 29.9635176,3.89306341 30.020201,3.89306341 C44.3517588,3.89306341 56.0110553,15.5514554 56.0110553,29.8824101 C56.0110553,44.2130634 44.3517588,55.8714554 30.020201,55.8714554 C29.9635176,55.8714554 29.9071357,55.8672343 29.8492462,55.8672343 L29.8492462,58.5491438 C29.9071357,58.5485408 29.9647236,58.5364805 30.021407,58.5364805 C32.6819095,58.5364805 35.5350754,60.2728624 37.9887437,59.616179" id="Fill-8" fill="#D2D2D2"></path>
                <path d="M30.0198995,4.98060302 C43.7662312,4.98060302 54.9500503,16.1629146 54.9500503,29.9089447 C54.9500503,43.6543719 43.7662312,54.8369849 30.0198995,54.8369849 C29.9635176,54.8369849 29.9068342,54.8330653 29.8492462,54.8330653 L29.8492462,55.8940704 C29.9068342,55.8940704 29.9635176,55.8979899 30.0198995,55.8979899 C44.3514573,55.8979899 56.0107538,44.239598 56.0107538,29.9089447 C56.0107538,15.5779899 44.3514573,3.91959799 30.0198995,3.91959799 C29.9635176,3.91959799 29.9068342,3.9241206 29.8492462,3.9241206 L29.8492462,4.98452261 C29.9068342,4.98452261 29.9635176,4.98060302 30.0198995,4.98060302" id="Fill-10" fill="#FFFFFF"></path>
                <path d="M54.9500503,30.0539698 C54.9500503,16.3079397 43.7662312,5.12562814 30.0198995,5.12562814 C29.9632161,5.12562814 29.9068342,5.12954774 29.8492462,5.12954774 L29.8492462,54.9780905 C29.9068342,54.9780905 29.9632161,54.9820101 30.0198995,54.9820101 C43.7662312,54.9820101 54.9500503,43.799397 54.9500503,30.0539698" id="Fill-12" fill="#D2D2D2"></path>
            </g>
        </g>
    </g>
</svg>