<?xml version="1.0" encoding="UTF-8"?>
<svg width="120px" height="120px" viewBox="0 0 120 120" version="1.1" xmlns="http://www.w3.org/2000/svg" xmlns:xlink="http://www.w3.org/1999/xlink">
    <!-- Generator: sketchtool 50.2 (55047) - http://www.bohemiancoding.com/sketch -->
    <title>61B96279-8740-4489-B8F9-59E1C4EBC812</title>
    <desc>Created with sketchtool.</desc>
    <defs>
        <linearGradient x1="78.8021235%" y1="100%" x2="78.8021207%" y2="0%" id="linearGradient-1">
            <stop stop-color="#2081DA" offset="0%"></stop>
            <stop stop-color="#FFFFFF" offset="100%"></stop>
        </linearGradient>
        <linearGradient x1="50%" y1="0%" x2="50%" y2="100%" id="linearGradient-2">
            <stop stop-color="#2081DA" offset="0%"></stop>
            <stop stop-color="#FFFFFF" offset="100%"></stop>
        </linearGradient>
    </defs>
    <g id="Page-1" stroke="none" stroke-width="1" fill="none" fill-rule="evenodd">
        <g id="Імпортування_суб'єктів_господарювання_завантаження" transform="translate(-479.000000, -354.000000)">
            <g id="Group-8" transform="translate(479.000000, 354.000000)">
                <g id="Group-10">
                    <path d="M71.2679155,1.08887324 C74.2408732,4.03056338 76.085662,8.11056338 76.085662,12.6130986 C76.085662,18.3739437 73.0679155,23.441831 68.5298873,26.3201408 C83.4673521,30.1669014 94.5039718,43.7277465 94.5039718,59.8652113 C94.5039718,78.9959155 78.9960845,94.5038028 59.8662254,94.5038028 C52.8994648,94.5038028 47.2518592,100.151408 47.2518592,107.118169 C47.2518592,114.08493 52.8994648,119.73169 59.8662254,119.73169 C92.9287606,119.73169 119.731859,92.9285915 119.731859,59.8652113 C119.731859,30.7026761 98.8763662,6.41366197 71.2679155,1.08887324 L37.6056338,12.6130986" id="Fill-1" fill="url(#linearGradient-1)"></path>
                    <path d="M43.6453521,107.117746 C43.6453521,101.357746 46.6639437,96.2898592 51.2011268,93.4115493 C36.264507,89.5647887 25.2278873,76.0047887 25.2278873,59.8656338 C25.2278873,40.7357746 40.7357746,25.2278873 59.8656338,25.2278873 C66.8315493,25.2278873 72.48,19.5802817 72.48,12.6135211 C72.48,5.64760563 66.8315493,0 59.8656338,0 C26.8022535,0 0,26.8030986 0,59.8656338 C0,89.0298592 20.8546479,113.318028 48.4639437,118.642817 C45.4909859,115.700282 43.6453521,111.621127 43.6453521,107.117746" id="Fill-4" fill="url(#linearGradient-2)"></path>
                </g>
            </g>
        </g>
    </g>
</svg>