<?xml version="1.0" encoding="UTF-8"?>
<svg width="82px" height="88px" viewBox="0 0 82 88" version="1.1" xmlns="http://www.w3.org/2000/svg" xmlns:xlink="http://www.w3.org/1999/xlink">
    <!-- Generator: sketchtool 50.2 (55047) - http://www.bohemiancoding.com/sketch -->
    <title>3A5CE59A-1E6F-467A-A775-DC9B16A38E60</title>
    <desc>Created with sketchtool.</desc>
    <defs></defs>
    <g id="Page-1" stroke="none" stroke-width="1" fill="none" fill-rule="evenodd">
        <g id="New_menu_2" transform="translate(-36.000000, -3664.000000)" fill="#2E78C8" fill-rule="nonzero">
            <g id="Group-4" transform="translate(36.000000, 3664.000000)">
                <g id="Shape">
                    <path d="M81.6467065,25.2277033 C81.4680138,23.6392303 79.6159165,22.445563 78.0144095,22.445563 C72.8365256,22.445563 68.2418107,19.4052643 66.3148726,14.7033338 C64.3463097,9.88746031 65.6156586,4.27104354 69.4745801,0.731246216 C70.68927,-0.379171261 70.8368492,-2.23799582 69.8180905,-3.52920827 C67.1679726,-6.89451743 64.1558443,-9.93439564 60.8670577,-12.5689568 C59.5792089,-13.6024313 57.6896912,-13.4586362 56.5729669,-12.2220827 C53.2051351,-8.49224042 47.1556513,-7.1060055 42.4810502,-9.05648891 C37.6164041,-11.1028357 34.548776,-16.0322316 34.8489797,-21.3236378 C34.9477863,-22.9856902 33.7330964,-24.4307886 32.0760894,-24.6237767 C27.855578,-25.1119231 23.5980667,-25.1270595 19.3649417,-24.657413 C17.7268552,-24.476618 16.5121653,-23.0655764 16.5672446,-21.4245467 C16.7514032,-16.1852766 13.6467752,-11.3420737 8.8304813,-9.36930625 C4.2118005,-7.48273176 -1.79521749,-8.85719399 -5.15632211,-12.5538204 C-6.26716004,-13.7714535 -8.12598461,-13.921135 -9.42014023,-12.9124672 C-12.8064721,-10.2556221 -15.8862933,-7.21322112 -18.5607975,-3.87566189 C-19.6039425,-2.57814264 -19.450477,-0.697454499 -18.2235939,0.418849326 C-14.2910931,3.98008978 -13.0213238,9.64527914 -15.0643069,14.5166524 C-17.0147903,19.1609809 -21.837391,22.1541888 -27.3583649,22.1541888 C-29.1499169,22.0965867 -30.425993,23.2990834 -30.6219243,24.92792 C-31.1189002,29.1728177 -31.1247866,33.498022 -30.6463106,37.7773969 C-30.4688793,39.3725972 -28.5604412,40.5557531 -26.9412751,40.5557531 C-22.0211292,40.4300375 -17.297335,43.4762225 -15.3157381,48.2984028 C-13.3404479,53.1142762 -14.6102172,58.7273294 -18.475025,62.2700699 C-19.6838286,63.3804874 -19.8372941,65.2363687 -18.8185355,66.5275812 C-16.1932243,69.8714472 -13.1806756,72.9142686 -9.88011627,75.5706933 C-8.58554019,76.6138382 -6.70190888,76.4666795 -5.5797187,75.230126 C-2.19927322,71.4910338 3.84979011,70.1073216 8.50589126,72.0615891 C13.3827305,74.1016291 16.4503586,79.0306045 16.1501549,84.3249539 C16.0521892,85.9878472 17.2727655,87.4354683 18.9230452,87.6255133 C21.0820735,87.8773649 23.2541358,88.0030804 25.4320845,88.0030804 C27.499454,88.0030804 29.5672439,87.889558 31.6346133,87.65957 C33.2731203,87.478775 34.4869693,86.0677333 34.4318899,84.4237605 C34.2422654,79.1874336 37.3523594,74.3442307 42.1623465,72.3748269 C46.8121408,70.4756388 52.7939316,71.8656578 56.1554567,75.5585002 C57.2726014,76.7736105 59.1183919,76.9203488 60.4196953,75.9150447 C63.7997203,73.2645063 66.8732348,70.2246281 69.5603526,66.8778189 C70.6030771,65.5832428 70.4559184,63.6996115 69.2227285,62.5837281 C65.2902277,59.0224877 64.0141515,53.3564574 66.0571347,48.4884477 C67.9777659,43.9059259 72.6212535,40.8290478 77.6158196,40.8290478 L78.3146132,40.8471273 C79.9346202,40.9787292 81.4251276,39.7308235 81.6214793,38.0771802 C82.1192962,33.8284984 82.1251825,29.5070782 81.6467065,25.2277033 Z M25.5897546,50.467522 C15.196987,50.467522 6.74335053,42.0138855 6.74335053,31.6211179 C6.74335053,21.2287708 15.196987,12.7747139 25.5897546,12.7747139 C35.9821017,12.7747139 44.4357381,21.2287708 44.4357381,31.6211179 C44.4357381,42.0138855 35.9821017,50.467522 25.5897546,50.467522 Z"></path>
                </g>
            </g>
        </g>
    </g>
</svg>