<?xml version="1.0" encoding="UTF-8"?>
<svg width="164px" height="164px" viewBox="0 0 164 164" version="1.1" xmlns="http://www.w3.org/2000/svg" xmlns:xlink="http://www.w3.org/1999/xlink">
    <!-- Generator: sketchtool 47.1 (45422) - http://www.bohemiancoding.com/sketch -->
    <title>48B7E4BF-F79C-48AF-9090-D23C852EAF78</title>
    <desc>Created with sketchtool.</desc>
    <defs></defs>
    <g id="Page-1" stroke="none" stroke-width="1" fill="none" fill-rule="evenodd">
        <g id="Forgot_pass_success" transform="translate(-789.000000, -233.000000)">
            <g id="Group-49" transform="translate(789.000000, 233.000000)">
                <path d="M82,164 C36.712712,164 0,127.287944 0,82 C0,36.71304 36.712712,0 82,0 C127.287288,0 164,36.71304 164,82 C164,127.287944 127.287288,164 82,164 Z" id="Fill-4" fill="#2081DA"></path>
                <g id="Group-48" transform="translate(33.500000, 26.000000)">
                    <g id="Group-45" transform="translate(1.000000, 36.000000)" fill="#2FD174">
                        <path d="M47.4998539,36 L95,1.10721056 C94.2586321,0.425986559 93.2852397,0 92.2121995,0 L2.78780049,0 C1.71446808,0 0.741367908,0.425986559 0,1.10721056 L47.4998539,36" id="Fill-4"></path>
                    </g>
                    <g id="Group-47">
                        <g id="Group-44" transform="translate(12.250000, 0.000000)">
                            <path d="M3.13087368,0 C1.40145246,0 0,1.39321962 0,3.113478 L0,90.2842523 C0,92.0039359 1.40145246,93.3983051 3.13087368,93.3983051 L69.4949932,93.3983051 C71.2235475,93.3983051 72.625,92.0039359 72.625,90.2842523 L72.625,19.1990147 L53.3216539,0 L3.13087368,0" id="Fill-8" fill="#FFFFFF"></path>
                            <path d="M69.5326426,93.3983051 L36.75,93.3983051 L36.75,78.1243303 L59.4370892,78.1243303 L59.4370892,71.9657708 L36.75,71.9657708 L36.75,66.8320094 L59.4370892,66.8320094 L59.4370892,60.6734499 L36.75,60.6734499 L36.75,55.5391138 L59.4370892,55.5391138 L59.4370892,49.3808417 L36.75,49.3808417 L36.75,44.2467929 L59.4370892,44.2467929 L59.4370892,38.0885208 L36.75,38.0885208 L36.75,32.9547594 L59.4370892,32.9547594 L59.4370892,26.7961999 L36.75,26.7961999 L36.75,0 L53.553845,0 L72.625,19.1990147 L53.553845,0 L52.973457,15.940697 C53.0319811,17.6589437 54.4616825,19.1452746 56.1663046,19.2602267 L72.625,19.1990147 L72.625,90.2842523 C72.625,92.0039359 71.240405,93.3983051 69.5326426,93.3983051" id="Fill-9" fill="#F2F2F2"></path>
                            <path d="M55.6276076,18.3305085 C53.9578164,18.2211053 52.5573283,16.8065217 52.5,15.1712172 L53.0685288,0 L71.75,18.2722513 L55.6276076,18.3305085" id="Fill-10" fill="#D9D9D9"></path>
                            <path d="M53.8670868,14.1706324 L53.375,0 L71.75,18.3305085 L56.9433858,17.3408196 C55.3009876,17.2310676 53.9240247,15.8111508 53.8670868,14.1706324" id="Fill-11" fill="#FFFFFF"></path>
                            <polygon id="Fill-12" fill="#E5E5E5" points="14 32.2966102 36.75 32.2966102 36.75 26.1864407 14 26.1864407"></polygon>
                            <polygon id="Fill-13" fill="#D9D9D9" points="36.75 32.2966102 59.5 32.2966102 59.5 26.1864407 36.75 26.1864407"></polygon>
                            <polygon id="Fill-14" fill="#E5E5E5" points="14 44.5169492 36.75 44.5169492 36.75 38.4067797 14 38.4067797"></polygon>
                            <polygon id="Fill-15" fill="#D9D9D9" points="36.75 44.5169492 59.5 44.5169492 59.5 38.4067797 36.75 38.4067797"></polygon>
                            <polygon id="Fill-16" fill="#E5E5E5" points="14 55.8644068 36.75 55.8644068 36.75 49.7542373 14 49.7542373"></polygon>
                            <polygon id="Fill-17" fill="#D9D9D9" points="36.75 55.8644068 59.5 55.8644068 59.5 49.7542373 36.75 49.7542373"></polygon>
                            <polygon id="Fill-18" fill="#E5E5E5" points="14 66.3389831 36.75 66.3389831 36.75 60.2288136 14 60.2288136"></polygon>
                            <polygon id="Fill-19" fill="#D9D9D9" points="36.75 66.3389831 59.5 66.3389831 59.5 60.2288136 36.75 60.2288136"></polygon>
                            <polygon id="Fill-20" fill="#E5E5E5" points="14 78.559322 36.75 78.559322 36.75 72.4491525 14 72.4491525"></polygon>
                            <polygon id="Fill-21" fill="#D9D9D9" points="36.75 78.559322 59.5 78.559322 59.5 72.4491525 36.75 72.4491525"></polygon>
                        </g>
                        <g id="Group-46" transform="translate(0.000000, 36.661017)">
                            <path d="M0.875,64.3786741 C1.62208141,65.0458076 2.60268097,65.4661017 3.68428523,65.4661017 L93.7978511,65.4661017 C96.1082968,65.4661017 98,63.6027688 98,61.3266833 L98,3.05199079 C98,1.8412885 97.454339,0.757921682 96.6071364,0 L48.7409209,34.2602065 L0.875,64.3786741" id="Fill-10" fill="#60E297"></path>
                            <path d="M1.52672796,65.4661017 L49,34.7997015 L1.44295125,0 C0.567396789,0.770874808 0,1.88834905 0,3.14293309 L0,62.2552022 C0,63.5468588 0.604305408,64.6949327 1.52672796,65.4661017" id="Fill-12" fill="#60E297"></path>
                            <path d="M0.875,65.2439646 C1.61929436,65.9157551 2.59623572,66.3389831 3.67380496,66.3389831 L93.451195,66.3389831 C94.5284709,66.3389831 95.5057056,65.9157551 96.25,65.2439646 L48.5623533,34.9152542 L0.875,65.2439646" id="Fill-11" fill="#2FD174"></path>
                        </g>
                    </g>
                </g>
            </g>
        </g>
    </g>
</svg>