<?xml version="1.0" encoding="UTF-8"?>
<svg width="14px" height="8px" viewBox="0 0 14 8" version="1.1" xmlns="http://www.w3.org/2000/svg" xmlns:xlink="http://www.w3.org/1999/xlink">
    <!-- Generator: sketchtool 50.2 (55047) - http://www.bohemiancoding.com/sketch -->
    <title>F8A51676-566E-4774-8032-F0C353399938</title>
    <desc>Created with sketchtool.</desc>
    <defs></defs>
    <g id="Page-1" stroke="none" stroke-width="1" fill="none" fill-rule="evenodd">
        <g id="IAS_Лісництво_рейтинг" transform="translate(-132.000000, -217.000000)" fill="#2081DA" fill-rule="nonzero">
            <path d="M142.467768,217.209846 C142.1953,216.930051 141.741823,216.930051 141.459829,217.209846 C141.187361,217.480189 141.187361,217.93013 141.459829,218.199842 L143.570657,220.29421 L132.705621,220.29421 C132.31248,220.29484 132,220.604884 132,220.994959 C132,221.385033 132.31248,221.70516 132.705621,221.70516 L143.570657,221.70516 L141.459829,223.790075 C141.187361,224.06987 141.187361,224.520441 141.459829,224.790154 C141.741823,225.069949 142.195935,225.069949 142.467768,224.790154 L145.788504,221.495313 C146.070499,221.22497 146.070499,220.77503 145.788504,220.505317 L142.467768,217.209846 Z" id="Shape" transform="translate(139.000000, 221.000000) rotate(-180.000000) translate(-139.000000, -221.000000) "></path>
        </g>
    </g>
</svg>