<svg xmlns="http://www.w3.org/2000/svg" xmlns:xlink="http://www.w3.org/1999/xlink" width="267" height="126" viewBox="0 0 267 126">
    <defs>
        <path id="a" d="M.64.346h136.525V125H.64z"/>
    </defs>
    <g fill="none" fill-rule="evenodd">
        <path fill="#000" d="M16.573 32.48c0 2.295-.823 4.103-2.476 5.425-1.652 1.322-3.953 1.983-6.898 1.983-2.713 0-5.112-.51-7.199-1.53v-5.009c1.716.765 3.171 1.304 4.36 1.617 1.188.313 2.272.47 3.257.47 1.183 0 2.093-.227 2.725-.679.631-.452.944-1.124.944-2.017 0-.498-.139-.942-.417-1.33-.278-.389-.685-.763-1.224-1.122-.539-.359-1.64-.934-3.298-1.722-1.553-.73-2.718-1.43-3.496-2.104a7.905 7.905 0 0 1-1.86-2.348c-.464-.892-.695-1.936-.695-3.13 0-2.249.764-4.017 2.29-5.304 1.523-1.287 3.628-1.93 6.317-1.93 1.322 0 2.586.156 3.786.47 1.2.312 2.451.753 3.762 1.321l-1.739 4.191c-1.357-.556-2.475-.945-3.363-1.165a10.856 10.856 0 0 0-2.62-.33c-1.019 0-1.802.237-2.347.713-.545.475-.818 1.095-.818 1.86 0 .476.111.89.331 1.244.22.353.574.696 1.055 1.026.481.33 1.617.924 3.414 1.782 2.377 1.137 4.006 2.276 4.887 3.417.882 1.142 1.322 2.542 1.322 4.2M30.99 39.54h-5.392V18.602h-6.904v-4.487h19.2v4.487h-6.905zM53.024 28.966a1815.722 1815.722 0 0 1-2.88-9.303 26.563 26.563 0 0 1-.46-1.704c-.382 1.483-1.477 5.154-3.286 11.008h6.626zm3.13 10.573l-1.844-6.052h-9.268l-1.844 6.052h-5.81l8.975-25.529h6.59l9.009 25.53h-5.808zM70.553 25.401h1.739c1.704 0 2.962-.284 3.774-.852.81-.567 1.216-1.46 1.216-2.677 0-1.206-.414-2.064-1.243-2.575-.83-.51-2.112-.765-3.851-.765h-1.635v6.87zm0 4.383v9.755H65.16V14.114h7.41c3.454 0 6.01.63 7.669 1.889 1.657 1.256 2.486 3.168 2.486 5.73 0 1.494-.411 2.825-1.235 3.99-.823 1.166-1.988 2.079-3.495 2.74l7.478 11.076H79.49l-6.07-9.756h-2.868zM98.482 39.54H93.09V18.602h-6.904v-4.487h19.199v4.487h-6.904zM6.956 71.199v6.626h3.513c1.484 0 2.58-.284 3.287-.852.707-.568 1.06-1.438 1.06-2.61 0-2.11-1.506-3.164-4.52-3.164h-3.34zm0-4.278h3.13c1.461 0 2.521-.226 3.177-.678.655-.452.98-1.2.98-2.244 0-.973-.354-1.672-1.067-2.095-.713-.423-1.843-.635-3.385-.635H6.956v5.652zm-5.39-10.07h7.911c3.606 0 6.226.514 7.855 1.54 1.63 1.026 2.44 2.658 2.44 4.895 0 1.519-.353 2.766-1.066 3.74-.713.973-1.664 1.559-2.846 1.756v.174c1.612.359 2.777 1.032 3.49 2.017.712.985 1.066 2.295 1.066 3.93 0 2.319-.835 4.128-2.51 5.426-1.676 1.299-3.953 1.948-6.829 1.948H1.565V56.852zM46.189 56.852v16.452c0 1.878-.42 3.524-1.261 4.938-.841 1.415-2.054 2.499-3.643 3.253-1.588.753-3.466 1.13-5.634 1.13-3.27 0-5.81-.838-7.617-2.513-1.81-1.676-2.713-3.968-2.713-6.878V56.852h5.374v15.564c0 1.96.393 3.397 1.18 4.313.79.916 2.094 1.374 3.915 1.374 1.762 0 3.04-.46 3.835-1.382.793-.922 1.19-2.37 1.19-4.34v-15.53h5.374zM67.422 75.216c0 2.296-.825 4.104-2.478 5.426-1.652 1.322-3.95 1.983-6.895 1.983-2.713 0-5.112-.511-7.199-1.531v-5.008c1.716.765 3.168 1.304 4.356 1.617 1.188.313 2.275.47 3.26.47 1.183 0 2.09-.227 2.722-.679.631-.452.948-1.124.948-2.017 0-.498-.14-.942-.418-1.33-.277-.389-.687-.763-1.226-1.122-.539-.359-1.637-.934-3.296-1.722-1.552-.73-2.717-1.431-3.495-2.104a7.905 7.905 0 0 1-1.86-2.348c-.464-.892-.696-1.936-.696-3.13 0-2.249.762-4.017 2.287-5.304 1.524-1.287 3.632-1.93 6.321-1.93 1.322 0 2.583.156 3.782.469 1.2.313 2.455.754 3.766 1.322l-1.739 4.191c-1.357-.556-2.479-.945-3.366-1.165a10.832 10.832 0 0 0-2.617-.331c-1.02 0-1.803.238-2.347.714-.545.475-.818 1.095-.818 1.86 0 .476.111.89.33 1.244.221.353.572.696 1.053 1.026.481.33 1.62.924 3.417 1.782 2.377 1.137 4.006 2.275 4.887 3.417.881 1.142 1.321 2.542 1.321 4.2M81.543 82.276H69.98v-3.06l3.095-1.426V61.338l-3.095-1.425v-3.061h11.564v3.06l-3.095 1.427v16.45l3.095 1.427zM108.446 82.276h-6.852l-11.06-19.232h-.156c.22 3.395.33 5.819.33 7.269v11.963H85.89V56.852h6.8l11.043 19.042h.122c-.174-3.305-.26-5.64-.26-7.009V56.851h4.851v25.425zM129.488 82.276h-14.643V56.852h14.643v4.418h-9.25v5.581h8.606v4.418h-8.607v6.555h9.251zM149.8 75.216c0 2.296-.825 4.104-2.478 5.426-1.652 1.322-3.95 1.983-6.895 1.983-2.713 0-5.112-.511-7.2-1.531v-5.008c1.717.765 3.169 1.304 4.357 1.617 1.189.313 2.276.47 3.26.47 1.184 0 2.09-.227 2.723-.679.63-.452.947-1.124.947-2.017 0-.498-.14-.942-.417-1.33-.278-.389-.688-.763-1.227-1.122-.54-.359-1.637-.934-3.295-1.722-1.553-.73-2.718-1.431-3.496-2.104a7.905 7.905 0 0 1-1.86-2.348c-.464-.892-.695-1.936-.695-3.13 0-2.249.76-4.017 2.286-5.304 1.524-1.287 3.632-1.93 6.32-1.93 1.323 0 2.584.156 3.784.469 1.199.313 2.454.754 3.765 1.322l-1.74 4.191c-1.356-.556-2.477-.945-3.365-1.165a10.832 10.832 0 0 0-2.617-.331c-1.02 0-1.802.238-2.347.714-.545.475-.818 1.095-.818 1.86 0 .476.11.89.33 1.244.22.353.572.696 1.053 1.026.48.33 1.62.924 3.417 1.782 2.377 1.137 4.006 2.275 4.887 3.417.882 1.142 1.322 2.542 1.322 4.2M169.417 75.216c0 2.296-.826 4.104-2.479 5.426-1.652 1.322-3.95 1.983-6.895 1.983-2.713 0-5.112-.511-7.199-1.531v-5.008c1.716.765 3.168 1.304 4.356 1.617 1.19.313 2.276.47 3.261.47 1.183 0 2.09-.227 2.722-.679.631-.452.947-1.124.947-2.017 0-.498-.139-.942-.417-1.33-.278-.389-.688-.763-1.227-1.122-.539-.359-1.637-.934-3.295-1.722-1.553-.73-2.718-1.431-3.496-2.104a7.905 7.905 0 0 1-1.86-2.348c-.464-.892-.695-1.936-.695-3.13 0-2.249.761-4.017 2.286-5.304s3.632-1.93 6.322-1.93c1.321 0 2.582.156 3.782.469 1.2.313 2.455.754 3.765 1.322l-1.739 4.191c-1.357-.556-2.478-.945-3.365-1.165a10.846 10.846 0 0 0-2.618-.331c-1.019 0-1.802.238-2.347.714-.545.475-.818 1.095-.818 1.86 0 .476.111.89.331 1.244.22.353.572.696 1.052 1.026.481.33 1.62.924 3.417 1.782 2.377 1.137 4.006 2.275 4.887 3.417.882 1.142 1.322 2.542 1.322 4.2M12.364 103.713c-2.028 0-3.6.762-4.713 2.287-1.112 1.525-1.669 3.649-1.669 6.374 0 5.669 2.127 8.504 6.382 8.504 1.785 0 3.948-.447 6.486-1.34v4.522c-2.086.869-4.417 1.304-6.99 1.304-3.698 0-6.527-1.122-8.486-3.365-1.96-2.243-2.94-5.463-2.94-9.66 0-2.644.482-4.959 1.444-6.948.962-1.988 2.347-3.512 4.15-4.574 1.803-1.06 3.913-1.591 6.336-1.591 2.47 0 4.95.597 7.443 1.792l-1.739 4.382a28.968 28.968 0 0 0-2.869-1.183 8.568 8.568 0 0 0-2.835-.504M45.093 125.016H39.72v-10.973H29.65v10.973h-5.39V99.591h5.39v9.965h10.07v-9.965h5.373zM63.944 114.443a1757.59 1757.59 0 0 1-2.878-9.304 26.035 26.035 0 0 1-.46-1.704c-.384 1.484-1.479 5.153-3.288 11.008h6.627zm3.13 10.573l-1.843-6.052h-9.268l-1.843 6.052h-5.81l8.974-25.529h6.592l9.006 25.529h-5.808zM76.083 125.016V99.591h5.391v20.973h10.312v4.452zM96.203 125.016V99.591h5.392v20.973h10.312v4.452zM130.967 125.016h-14.643V99.591h14.643v4.418h-9.252v5.582h8.608v4.417h-8.608v6.556h9.252zM158.826 125.016h-6.852l-11.06-19.234h-.156c.22 3.397.33 5.82.33 7.27v11.964h-4.818V99.591h6.8l11.043 19.043h.122c-.174-3.305-.262-5.64-.262-7.009V99.591h4.853v25.425zM174.877 110.739h10.087v13.182c-1.635.533-3.174.907-4.617 1.122a30.15 30.15 0 0 1-4.426.32c-3.838 0-6.768-1.126-8.79-3.381-2.025-2.255-3.035-5.493-3.035-9.713 0-4.104 1.174-7.303 3.521-9.6 2.348-2.295 5.603-3.443 9.765-3.443 2.608 0 5.124.522 7.547 1.566l-1.79 4.312c-1.856-.927-3.786-1.391-5.792-1.391-2.33 0-4.198.783-5.6 2.348-1.402 1.565-2.104 3.669-2.104 6.313 0 2.759.565 4.866 1.696 6.32 1.13 1.456 2.773 2.184 4.93 2.184a17.49 17.49 0 0 0 3.425-.348v-5.304h-4.817v-4.487zM205.658 125.016h-14.643V99.591h14.643v4.418h-9.252v5.582h8.608v4.417h-8.608v6.556h9.252z"/>
        <g transform="translate(129 .654)">
            <mask id="b" fill="#fff">
                <use xlink:href="#a"/>
            </mask>
            <path fill="#EA5F00" d="M.64.346v41.552h59.358v41.55h35.616V125h41.55V.346z" mask="url(#b)"/>
        </g>
    </g>
</svg>
