<?xml version="1.0" encoding="UTF-8"?>
<svg width="37px" height="9px" viewBox="0 0 37 9" version="1.1" xmlns="http://www.w3.org/2000/svg" xmlns:xlink="http://www.w3.org/1999/xlink">
    <!-- Generator: sketchtool 47.1 (45422) - http://www.bohemiancoding.com/sketch -->
    <title>F22DF982-D3E6-4B87-AF71-15F76639BB01</title>
    <desc>Created with sketchtool.</desc>
    <defs></defs>
    <g id="Page-1" stroke="none" stroke-width="1" fill="none" fill-rule="evenodd">
        <g id="Сreate_check_step_1.1" transform="translate(-609.000000, -212.000000)" fill-rule="nonzero" fill="#DAE3EC">
            <path d="M627.07186,234.82009 C627.189655,234.937031 627.348226,235 627.502265,235 C627.656305,235 627.814875,234.941529 627.932671,234.82009 L631.819909,230.961019 C632.06003,230.722639 632.06003,230.34033 631.819909,230.101949 C631.579789,229.863568 631.194689,229.863568 630.954568,230.101949 L628.113894,232.926537 L628.113894,198.607196 C628.113894,198.269865 627.842059,198 627.502265,198 C627.162472,198 626.890637,198.269865 626.890637,198.607196 L626.890637,232.926537 L624.045432,230.101949 C623.805311,229.863568 623.420211,229.863568 623.180091,230.101949 C622.93997,230.34033 622.93997,230.722639 623.180091,230.961019 L627.07186,234.82009 Z" id="Shape-Copy" transform="translate(627.500000, 216.500000) rotate(-90.000000) translate(-627.500000, -216.500000) "></path>
        </g>
    </g>
</svg>