<?xml version="1.0" encoding="UTF-8"?>
<svg width="187px" height="178px" viewBox="0 0 187 178" version="1.1" xmlns="http://www.w3.org/2000/svg" xmlns:xlink="http://www.w3.org/1999/xlink">
    <!-- Generator: sketchtool 47.1 (45422) - http://www.bohemiancoding.com/sketch -->
    <title>8C6AB752-7DFC-4204-866C-9862125C4319</title>
    <desc>Created with sketchtool.</desc>
    <defs></defs>
    <g id="Page-1" stroke="none" stroke-width="1" fill="none" fill-rule="evenodd">
        <g id="Add_person_1.3" transform="translate(-445.000000, -248.000000)">
            <g id="Page-1" transform="translate(445.000000, 248.000000)">
                <path d="M40.0386163,174 C39.3799297,173.770743 38.8841221,173.268773 38.382851,172.843108 C34.5942934,169.624273 30.9774929,166.23572 27.7175236,162.45435 C24.9270692,159.21738 22.4661287,155.756285 20.2404578,152.133684 C17.7037121,148.004665 15.5927736,143.646389 13.9332522,139.079045 C12.9740761,136.439169 12.0538271,133.779105 11.415287,131.049579 C10.7337222,128.13699 10.1218164,125.208661 9.73800942,122.223531 C9.26644583,118.553026 8.93556595,114.876704 9.01137125,111.193538 C9.07863991,107.91448 9.23503102,104.635423 9.71888736,101.358418 C10.2795734,97.5592552 10.9508942,93.8018376 12.0241196,90.1238045 C13.1410527,86.2962411 14.4860845,82.5531949 16.2016062,78.9377797 C17.2191728,76.7937146 18.1445438,74.599692 19.4397217,72.6137116 C20.5225082,70.953139 21.4311474,69.1905984 22.5600317,67.546108 C23.3966217,66.327967 24.3694563,65.1751813 25.1568753,63.9005815 C25.652,63.0988667 26.3830772,62.3354755 27.0571297,61.5956944 C28.2054776,60.3347816 29.2353369,58.9565029 30.4345631,57.7318605 C31.1359328,57.0156894 31.8270586,56.2810409 32.5974043,55.6449386 C32.9351135,55.3660664 33.0744313,54.9773562 33.4059942,54.7001949 C35.2277116,53.1778608 36.9507455,51.5309752 38.8274388,50.0832351 C41.0875977,48.3395142 43.338537,46.5564431 45.8199654,45.1357348 C48.0610022,43.8529228 50.2272581,42.4216071 52.6427836,41.4546221 C53.1624938,41.2465801 53.4080074,40.9033791 52.840492,40.3846426 C52.0824391,39.6920816 51.5012651,38.8428046 50.9935062,37.953151 C50.7230657,37.4788972 50.4475032,37.4207276 49.9605737,37.6777006 C46.8385564,39.3249284 43.7838077,41.0932859 40.8929625,43.1141682 C38.9230491,44.4917625 37.029624,45.9850118 35.1563453,47.5022133 C33.0122847,49.2380643 30.981932,51.0868328 28.9925551,52.993771 C27.3907413,54.5291077 26.0562949,56.298834 24.5183352,57.8861812 C23.5468664,58.8884102 22.7020812,60.0333259 21.8866621,61.1258889 C20.46002,63.0376175 18.6236196,64.6721848 17.6658094,66.9401171 C17.3837591,67.6076994 16.9149272,68.2088999 16.4669247,68.7902543 C15.7320914,69.7438945 15.0908196,70.8063461 14.6189145,71.8537421 C14.2180342,72.7423691 13.5794941,73.5081556 13.2752485,74.4864323 C13.053979,75.1971286 12.4693904,75.9054297 12.0975347,76.6465796 C11.0451386,78.7430824 10.1651825,80.9134949 9.2835191,83.0859605 C8.13243955,85.923271 7.24189803,88.8492047 6.31823438,91.7611092 C5.82584141,93.314239 5.54174227,94.9378568 5.2265698,96.5419706 C4.82432367,98.5898846 4.44837036,100.644642 4.12944177,102.706928 C3.79617163,104.86468 3.51275543,107.032013 3.4864626,109.221587 C3.47895036,109.844002 3.40621825,110.44315 3.05758217,110.991655 C3.05280166,108.47154 2.90528865,105.962033 3.10197266,103.442603 C3.2255831,101.858677 3.33724226,100.274752 3.49909681,98.6932213 C3.70090281,96.719217 4.03588028,94.7684804 4.37768705,92.8143222 C4.84242133,90.1580219 5.56974243,87.5701566 6.2550633,84.9709995 C6.58696758,83.7135084 6.99399422,82.4731261 7.42287464,81.2443776 C8.0108779,79.5591685 8.60468607,77.873275 9.2835191,76.223652 C9.9674741,74.5620529 10.770259,72.9487003 11.528312,71.3202921 C12.0466564,70.2071987 12.5772934,69.1043704 13.1864675,68.0456827 C14.4826698,65.7928061 15.8796044,63.6032319 17.3199051,61.4362411 C18.7182055,59.3322104 20.2233846,57.3123547 21.7808078,55.3349285 C24.313456,52.1195153 27.1605937,49.1860537 30.1566103,46.4010959 C32.4420376,44.2765348 34.8336606,42.2837108 37.3359184,40.4133853 C40.4227647,38.1064452 43.7045878,36.1139634 46.9949475,34.1279829 C47.2107535,33.9976144 47.4432914,33.8932512 47.6720732,33.7861506 C48.4526629,33.4203661 49.2868626,33.1035126 49.2178866,32 C49.2605698,32.2200182 49.3141798,32.4396942 49.3442288,32.6617654 C49.8451584,36.3634085 51.6808759,39.2831831 54.53416,41.619208 C55.8204598,42.6727632 57.338956,43.2777276 58.8338911,43.9329916 C58.7498906,44.1855164 58.5187186,44.2214447 58.313498,44.3210175 C57.3297364,44.7973243 56.3538286,45.2893711 55.3816768,45.7886037 C53.4763004,46.7675648 51.6439976,47.8679978 49.8342315,49.0177039 C47.1035334,50.7521862 44.4653725,52.6208008 42.0406273,54.745362 C39.3550027,57.0988378 36.7844519,59.5874726 34.4341462,62.2961255 C31.4367637,65.7507187 28.8283103,69.480078 26.4896144,73.3996863 C26.0873683,74.0734277 25.5379506,74.7577766 25.5656093,75.7110746 C25.9985873,75.4623138 26.0388802,75.0530732 26.2406862,74.7567501 C27.9749885,72.2058396 29.7598276,69.6946214 31.7710583,67.3514107 C33.0996998,65.8027292 34.3682434,64.1982732 35.7562999,62.7053661 C38.0198734,60.2714793 40.5583265,58.1397325 43.1517555,56.0599962 C45.454256,54.2132807 47.7786103,52.3997561 50.3068195,50.8921355 C53.7040578,48.8664628 57.1439793,46.9058032 60.8645853,45.4967289 C61.4515641,45.2743155 61.5912234,45.3574639 61.5645891,45.9179456 C61.5082474,47.107344 61.5161011,48.2943471 61.4126371,49.488536 C61.0937085,53.1593834 60.8300973,56.8370744 60.5774129,60.5127123 C60.3674118,63.566277 60.0846785,66.6129983 59.8743359,69.6651944 C59.6189198,73.373681 59.2812106,77.0760085 59.3037474,80.8070787 C59.3259426,84.5271993 60.1253129,88.0793122 61.5256621,91.4469931 C62.929426,94.8218596 64.8723636,97.9034827 67.412524,100.626507 C70.5171265,103.95518 74.0874878,106.534491 78.2489254,108.308665 C78.8212213,108.552636 79.0148321,108.831166 78.9991247,109.431682 C78.9390268,111.700983 78.7361964,113.95557 78.5098049,116.21358 C78.2519986,118.781257 78.1273638,121.362278 77.9713142,123.939194 C77.9422896,124.419949 77.9241919,124.852458 77.4102867,125.065975 C77.151456,124.904126 76.8615519,124.938001 76.5815504,124.950662 C69.3793641,125.274359 63.110744,127.85367 57.7432509,132.689963 C54.0359621,136.030955 51.6037047,140.288289 49.2253988,144.557942 C45.439573,151.354553 43.3043904,158.762288 41.6189177,166.309971 C41.0486706,168.863619 40.563107,171.436087 40.0386163,174" id="Fill-1" fill="#EBF0F3"></path>
                <path d="M126.242398,44 C126.275168,44.3297743 126.518898,44.4591578 126.7756,44.6032207 C129.991883,46.4091276 133.041242,48.4731188 135.931868,50.7555939 C137.81378,52.2409438 139.659166,53.7788665 141.392586,55.4475381 C143.984182,57.942011 146.519113,60.4931533 148.715074,63.34198 C150.317071,65.4203091 151.903707,67.5075142 153.314885,69.7415132 C155.141154,72.6323298 156.88345,75.5606984 158.368019,78.6321056 C159.618076,81.2187515 160.699842,83.8828909 161.633458,86.6091618 C162.467739,89.0452585 163.194833,91.5103726 163.8045,94.0045042 C164.406999,96.4716666 164.825505,98.9811603 165.200658,101.498847 C165.652617,104.526558 165.899761,107.56963 165.983394,110.620213 C166.046204,112.896885 165.918877,115.182433 165.80145,117.460128 C165.721572,119.010682 165.561133,120.561577 165.350856,122.100524 C164.865102,125.6584 164.163268,129.170189 163.239893,132.64784 C162.367038,135.935 161.296537,139.157298 160.035899,142.29664 C158.437998,146.276121 156.453679,150.083205 154.123905,153.702871 C152.825376,155.720434 151.446628,157.677914 150.046032,159.623446 C147.433955,163.253695 144.332027,166.447316 141.09458,169.500289 C139.767718,170.75111 138.528585,172.141897 136.906107,173.057141 C136.57533,173.243876 136.668521,173.549754 136.666131,173.812959 C136.654184,174.978776 136.6733,176.144593 136.662718,177.31041 C136.660328,177.563373 136.809843,177.911241 136.377683,178 C136.398847,177.774006 136.441176,177.548011 136.438786,177.322017 C136.349692,169.474003 136.255477,161.625989 136.164675,153.777975 C136.088211,147.162689 133.678559,141.35989 129.713334,136.218346 C125.443277,130.681142 119.727564,127.310002 112.907556,125.776176 C110.956349,125.337501 108.963837,125.323505 107,125.035037 C107.105139,123.62684 107.211642,122.219325 107.315416,120.811468 C107.542419,117.736989 107.769764,114.662168 107.993354,111.587346 C108.114537,109.923113 108.219334,108.257514 108.354512,106.594304 C108.37909,106.292182 108.441217,105.952849 108.683923,105.737437 C109.209957,105.270769 109.733943,104.792835 110.309133,104.391371 C112.812317,102.64384 114.729388,100.335761 116.457347,97.8740609 C118.150486,95.4615195 119.453795,92.8243491 120.370002,90.0202434 C120.798407,88.7100221 121.091293,87.3578109 121.342533,85.991603 C121.721783,83.9300016 121.776741,81.8356275 122.119466,79.7726605 C122.19593,79.313844 122.394942,79.1506638 122.772485,79.0328872 C124.21814,78.5812398 125.494481,77.8735565 126.639057,76.8419023 C128.214769,75.4214148 129.011842,73.5803456 129.433762,71.6313999 C129.747129,70.183602 129.531049,68.6340724 128.960297,67.2002711 C128.239006,65.3882193 127.18489,63.8677071 125.51701,62.751049 C124.854774,62.3075947 124.038926,62.0604347 123.528595,61.390986 C123.509138,61.1970814 123.460665,61.0011286 123.47466,60.8096137 C123.671283,58.1041671 123.844011,55.3963309 124.095933,52.6956637 C124.192538,51.662644 124.058725,50.6047034 124.39394,49.595239 C125.697589,49.8888269 126.690943,50.7668595 127.794215,51.4274323 C132.233587,54.0854268 136.300195,57.2452519 140.055142,60.7949343 C143.398069,63.9551007 146.407488,67.4197792 149.059505,71.1821422 C150.036474,72.5681501 151.103903,73.8937336 151.946718,75.3722559 C152.700439,76.6944255 153.450745,78.0183021 154.200369,79.3428614 C155.272236,81.2358206 156.222579,83.1851076 157.041499,85.2030123 C157.238463,85.6887979 157.320048,86.2903117 157.98877,86.7173796 C157.552172,85.4341274 157.23027,84.279576 156.769436,83.1834007 C156.113686,81.6236297 155.329926,80.1184797 154.647208,78.5699742 C153.457573,75.8720381 151.851479,73.4048756 150.283277,70.933958 C149.143138,69.1379512 147.882159,67.4027102 146.492487,65.7569111 C144.903461,63.8755589 143.363592,61.9546065 141.649288,60.1845446 C139.362866,57.8238931 136.896548,55.6738739 134.311438,53.6337794 C131.233064,51.2048517 127.960115,49.110819 124.5397,47.2229806 C124.418176,45.92778 124.626746,44.787908 125.964873,44.1741044 C126.063184,44.1287007 126.150231,44.0583762 126.242398,44" id="Fill-3" fill="#EBF0F3"></path>
                <path d="M126.091509,43.8610927 C124.752302,44.4787191 124.543564,45.6256905 124.664844,46.9293013 C124.468404,47.6166597 124.534681,48.3249721 124.500176,49.0250403 C124.358398,49.102673 124.399053,49.1679394 124.5135,49.2283967 C124.183823,50.3317426 124.317744,51.3962722 124.221061,52.4357258 C123.968935,55.1532133 123.796068,57.8779144 123.599287,60.600211 C123.58528,60.7929186 123.633792,60.9900919 123.653265,61.1852042 C123.352285,61.364515 123.048231,61.2707375 122.743152,61.1975704 C120.687538,60.7042937 118.686587,60.8159336 116.734147,61.686725 C116.478605,61.8007695 116.191632,62.1642004 115.896118,61.9137835 C115.606754,61.6685191 115.797386,61.270394 115.819934,60.9413139 C116.043363,57.6896723 116.451957,54.4466184 116.474163,51.1860457 C116.512085,45.6569497 112.517697,40.7660906 107.119877,39.6156841 C104.940934,39.151262 102.710745,39.1588192 100.50413,38.9812258 C92.7910538,38.3605079 85.0738782,37.7909725 77.3546528,37.2478872 C73.2417183,36.958654 69.5281542,35.6790887 66.2539317,33.1216757 C65.3837894,32.442218 64.6233116,31.6421891 63.7278882,30.8689538 C63.6786929,31.1664313 63.6315474,31.3587955 63.6168571,31.5535642 C63.3069949,35.7175615 62.9913248,39.8812154 62.7046937,44.0472738 C62.6647225,44.6274579 62.508254,44.8847449 61.8922875,44.7586777 C61.1420588,44.6047864 60.3826059,44.4989861 59.626911,44.3729188 C58.1308947,43.7147586 56.6119889,43.1070939 55.3247111,42.0497779 C52.4700155,39.7046525 50.6333899,36.7731599 50.1325541,33.0574398 C50.1024903,32.83416 50.0488537,32.6139717 50.0061494,32.3930964 C50.0044412,31.6212351 50.0020498,30.8490304 50,30.0778562 C50.0772093,29.5323663 50.1544187,28.986533 50.2312864,28.4403561 C50.2562257,28.297457 50.2815066,28.1549014 50.3064459,28.0126893 C50.7328054,26.7722839 51.197428,25.5469928 51.758733,24.3605181 C52.478898,23.3894225 53.1498676,22.4990512 53.8211789,21.6090234 C55.361266,20.2968249 56.919118,19.1247775 58.7718005,18.4236788 C59.1629717,18.2752836 59.120609,17.9599437 59.1390573,17.6525045 C59.2258324,16.198781 59.4817164,14.7800952 59.8499981,13.3672491 C60.248002,11.8393279 61.0122378,10.4807559 61.6196634,9.04936036 C63.0862992,6.92407974 64.6526921,5.06742196 66.5873667,3.55014953 C68.8424943,2.0782201 71.137593,0.938462364 73.7077074,0.378201707 C75.536817,-0.0206104472 77.3765173,0.0192364174 79.2213422,0 C79.4123157,0.0044655969 79.6029476,0.00927470125 79.7935795,0.0137402981 C79.9292083,0.0470605212 80.0699616,0.120227609 80.2014908,0.106830818 C81.0634339,0.018205895 81.3326417,0.332515215 81.2096534,1.2349093 C81.0091141,2.70237314 80.9489865,4.18976041 80.8471795,5.67027754 C80.8256565,5.98527387 80.694469,6.40950558 81.235276,6.44935244 C83.127588,6.58744244 85.0205832,6.71763177 86.9132369,6.85091266 C87.2248073,6.86327893 87.5367193,6.8759887 87.8476065,6.88869848 C89.7426515,7.1799928 91.6540951,7.27102227 93.5665635,7.350716 C93.9348452,7.36720436 94.3031269,7.38369272 94.6707253,7.40052458 C96.749228,7.73132226 98.8523283,7.79040554 100.946204,7.94292285 C103.153845,8.10334083 105.354994,8.37196366 107.5722,8.38879553 C107.773081,8.40047478 107.974645,8.41215403 108.175185,8.42383329 C110.132749,8.68283791 112.098171,8.84634746 114.073841,8.87382805 C114.380287,8.99268163 114.695616,8.97310171 115.010944,8.93668992 C117.025903,9.20668677 119.049744,9.36710476 121.083151,9.39870744 C121.276857,9.41279125 121.470564,9.42687505 121.663929,9.44061535 C123.621152,9.72057393 125.591015,9.83874049 127.56566,9.89576273 C127.875523,9.91396862 128.185726,9.93183101 128.495247,9.9496934 C128.944838,10.0657989 129.282372,10.3344217 129.566612,10.6999137 C129.998438,11.2550217 130.452128,11.7929544 130.896252,12.3381007 C132.092314,14.2847575 133.119266,16.1194308 133.776229,18.1337585 C134.10044,19.1288996 134.368623,20.1425901 134.661745,21.1476929 C134.682243,21.2885309 134.702741,21.4290255 134.722897,21.568833 C134.788833,22.188864 134.870142,22.8085514 134.918654,23.4302999 C135.368245,29.1933245 133.953879,34.4520801 130.683756,39.2058797 C129.389304,40.8389142 127.982454,42.3627132 126.369257,43.6859039 C126.277016,43.7446437 126.189899,43.8154062 126.091509,43.8610927 Z" id="Fill-5" fill="#462F18"></path>
                <path d="M15.4799856,33 C15.7133419,33.0285673 15.7025609,33.2168364 15.7460327,33.3810126 C16.0294684,34.4538365 16.3821111,35.5128931 16.5911233,36.5994844 C16.8526492,37.956605 17.7676424,38.7840253 18.9013853,39.2820606 C20.0180873,39.7725239 21.235296,40.0898623 22.4789355,40.2041317 C22.6928164,40.223406 22.9925975,40.1425226 22.9999008,40.4922143 C23.0058129,40.7885574 22.7463736,40.8388084 22.5192773,40.893878 C21.5973286,41.1162213 20.6816399,41.3722948 19.7506492,41.5502383 C18.1314139,41.8596605 17.172949,42.9052938 16.6373772,44.33607 C16.2896033,45.2646805 16.1417994,46.2662582 15.8952277,47.2327291 C15.8218474,47.519435 15.8715791,47.9778891 15.5158064,47.9992286 C15.154817,48.0212564 15.2407172,47.5662441 15.1676847,47.3112032 C14.9085931,46.4090949 14.6696724,45.4987262 14.445706,44.5914551 C13.9633436,42.6371739 12.5371229,41.8575953 10.7777347,41.4115319 C10.0008078,41.2146582 9.21553429,41.0487611 8.43234745,40.8746036 C8.22959527,40.8295154 7.99554343,40.7961295 8.00006449,40.5441862 C8.0052811,40.2357967 8.27411033,40.2278804 8.50781439,40.2044758 C9.80918434,40.0740298 11.0270886,39.6011199 12.2561215,39.2180423 C13.5623603,38.8105275 14.1264496,37.6606061 14.4794401,36.4442571 C14.7708746,35.4385492 14.9861467,34.4111576 15.2278496,33.3913381 C15.267148,33.2257852 15.2539326,33.0416464 15.4799856,33" id="Fill-11" fill="#EBF0F3"></path>
                <path d="M180,142.97035 C179.937067,143.239947 179.68671,143.219508 179.470399,143.273038 C178.233745,143.57897 176.948603,143.738911 175.771099,144.221655 C174.770359,144.631727 174.050239,145.365575 173.698433,146.348905 C173.325992,147.389983 172.954928,148.437549 172.847288,149.543836 C172.828717,149.73849 172.806708,149.960072 172.57389,149.994461 C172.26507,150.040205 172.223115,149.793967 172.17944,149.574332 C172.029157,148.814854 171.756447,148.075167 171.61373,147.323476 C171.209651,145.191683 169.780415,144.162285 167.66201,143.758701 C166.881364,143.60979 166.110003,143.418056 165.33314,143.250977 C165.194549,143.220806 165.032574,143.225996 165.004718,143.0547 C164.967578,142.825008 165.156721,142.814302 165.325574,142.7731 C166.397845,142.509992 167.46702,142.23488 168.539979,141.975989 C169.902498,141.646699 170.888795,140.901172 171.307661,139.620993 C171.65087,138.571805 171.892974,137.493094 172.170843,136.425413 C172.217269,136.247953 172.16706,136.005284 172.445616,136.000093 C172.726924,135.994902 172.797767,136.2074 172.85279,136.436768 C173.07254,137.353916 173.265123,138.279823 173.549525,139.179127 C174.015506,140.654285 174.88247,141.711584 176.651476,142.010703 C177.694515,142.186865 178.706604,142.573255 179.756865,142.782833 C179.866568,142.804569 179.986588,142.819817 180,142.97035" id="Fill-13" fill="#EBF0F3"></path>
                <path d="M187,156.180411 C186.049813,156.596005 185.140226,156.667779 184.294782,156.984289 C183.294783,157.358568 182.833507,158.113778 182.53668,159.04545 C182.371208,159.565729 182.290348,160.114719 182.177076,160.652154 C182.147393,160.793953 182.151146,160.95781 181.974756,160.992822 C181.742071,161.039038 181.693282,160.853474 181.648929,160.683315 C181.539069,160.26387 181.416244,159.846176 181.331631,159.420779 C181.009557,157.80112 180.057323,156.886255 178.448317,156.661827 C178.141255,156.619113 177.838628,156.539985 177.531907,156.493069 C177.309799,156.459107 176.998301,156.483966 177.000007,156.193716 C177.002054,155.876506 177.333681,155.867753 177.576943,155.810334 C178.072336,155.693043 178.565342,155.566649 179.061077,155.45111 C180.259984,155.172063 180.976804,154.4095 181.24736,153.185128 C181.378714,152.591323 181.52781,152.001019 181.668717,151.408965 C181.705565,151.253511 181.633235,151.002125 181.870355,151.000024 C182.124875,150.997223 182.149782,151.241607 182.166499,151.447478 C182.234053,152.267461 182.499833,153.037727 182.765953,153.80029 C183.291371,155.304409 184.677927,155.440956 185.911635,155.784775 C186.234392,155.874756 186.575231,155.889111 187,156.180411" id="Fill-15" fill="#EBF0F3"></path>
                <path d="M0,24.0408512 C1.19682242,23.3764211 2.62705887,23.5624893 3.58125822,22.5606371 C4.52376916,21.5709348 4.33321265,20.1875733 4.95128164,19 C5.5959152,19.6842172 5.55128673,20.555544 5.74821874,21.2751697 C6.05778452,22.4085888 6.7141065,23.002549 7.76252153,23.3090755 C8.3508382,23.4809109 8.96182331,23.5777636 9.55651548,23.7315475 C9.7403423,23.779106 10.0116551,23.8138202 9.99961251,24.0731354 C9.98827829,24.326202 9.74105069,24.3317563 9.53809738,24.3779262 C8.96678203,24.5077574 8.40361315,24.6709142 7.83088102,24.7931082 C6.29651146,25.119769 5.76840781,26.245551 5.49567823,27.5810068 C5.44396586,27.8337263 5.42554776,28.0975544 5.33947855,28.3377767 C5.25447193,28.5741805 5.46061299,29.0365739 5.01007789,28.997694 C4.69307402,28.9706169 4.71751342,28.5446735 4.64313263,28.2811926 C4.47878649,27.7004237 4.36544432,27.105075 4.19543108,26.5260419 C3.80900513,25.2096788 2.61926659,24.9319651 1.50426305,24.5650358 C1.03814339,24.4119461 0.512519102,24.4317332 0,24.0408512" id="Fill-17" fill="#EBF0F3"></path>
                <path d="M61,10 C60.3761834,11.372605 59.5913253,12.6753774 59.1822307,14.1405435 C58.804362,15.4950316 58.5415732,16.8557782 58.4524565,18.2494647 C58.4335104,18.5446061 58.4770162,18.8469942 58.0752895,18.9889651 C56.1726138,19.6615976 54.5727242,20.7851771 53.0366899,22 C52.890735,21.2229481 53.170014,20.9617348 54.0587246,20.741367 C55.0172549,20.5038704 55.9133335,19.8421082 56.6813506,19.2014274 C57.2069284,18.7626681 58.372462,18.9734834 58.267557,17.8611035 C58.2005441,17.1486138 58.4419309,16.4568762 58.5499936,15.7555861 C58.7878719,14.2054351 59.4380025,12.7788087 59.9681414,11.3133132 C60.1709344,10.7533352 60.4428455,10.2908592 61,10" id="Fill-19" fill="#9AD3E2"></path>
                <path d="M66,4.02452334 C64.0283941,5.71015882 62.4321001,7.77283933 61.000832,10 C60.9733277,9.17569105 61.6348235,8.78605242 61.9405043,8.17583482 C62.7565813,6.54820626 64.10847,5.51247732 65.3169185,4.31341309 C65.5153672,4.11649484 65.7054603,3.9321702 66,4.02452334" id="Fill-29" fill="#9AD3E2"></path>
                <path d="M54,22.1279913 C53.3333333,23.0854507 52.6663272,24.0432796 52,25 C52.3506449,24.1242073 52.7301426,23.2613483 53.0414121,22.3704048 C53.2739308,21.7041372 53.6690428,22.1431421 54,22.1279913" id="Fill-41" fill="#9AD3E2"></path>
                <path d="M52,25 C51.2270054,26.2994733 50.587156,27.6414597 50,29 C50.1543166,27.5022573 50.6271466,26.1072235 52,25" id="Fill-43" fill="#9AD3E2"></path>
                <path d="M50.5,29 C50.3937622,29.6666667 50.2879945,30.3337529 50.1817567,31 C49.9471873,30.2892805 49.8381291,29.5957625 50.5,29" id="Fill-45" fill="#9AD3E2"></path>
                <path d="M40.4106248,176 C40.4686248,176.363684 40.4166248,176.701429 40.1996248,177 C39.9296248,176.585495 39.8746248,176.222869 40.4106248,176" id="Fill-47" fill="#9AD3E2"></path>
                <path d="M40.3621775,177 C40.3686775,177.333604 40.3751775,177.666802 40.3811775,178 C39.6021775,177.676125 40.2381775,177.33482 40.3621775,177" id="Fill-49" fill="#9AD3E2"></path>
                <path d="M72.0223377,64.2203797 C72.0408991,62.6449379 70.8020961,61.3765825 69.2360621,61.3666655 C67.6531853,61.3570904 66.3899774,62.5693632 66.3483861,64.1379656 C66.3088571,65.6398845 67.6109065,66.9752655 69.155973,67.0169854 C70.6879777,67.0583634 72.00412,65.7742775 72.0223377,64.2203797 M100.878474,66.7081893 C100.864037,68.3051749 102.061249,69.5400176 103.657531,69.5742143 C105.181974,69.6067012 106.520115,68.3140661 106.542114,66.7868417 C106.564456,65.2373894 105.275812,63.9245783 103.73762,63.9297078 C102.11659,63.9351792 100.893254,65.1241983 100.878474,66.7081893 M90.1190365,98.6701306 C90.7229701,98.7005656 91.3186543,98.6544001 91.9102137,98.5234267 C95.7919569,97.662012 98.0145153,93.9475669 98.4575833,90.5966328 C98.5252982,90.0847082 98.2791875,89.9551028 97.8323384,89.9222739 C96.4347321,89.8189999 95.0391882,89.6897364 93.6419256,89.5765453 C88.5674391,89.1655011 83.4929526,88.7547988 78.4177787,88.348884 C76.7637498,88.2165428 75.1073148,88.1160045 73.4550045,87.9686167 C72.8026049,87.9101404 72.5107781,88.089673 72.5571817,88.794125 C72.6207717,89.7622334 72.6998296,90.7221346 72.938722,91.6666474 C73.7736422,94.9642347 76.3608982,97.4988937 79.4286887,97.8076899 C82.9852634,98.1657293 86.5552435,98.3897177 90.1190365,98.6701306 M70.5033947,177.989365 C68.45442,177.988339 66.4047578,177.964402 64.3561268,177.999624 C63.6769163,178.011251 63.4572728,177.75375 63.4421486,177.11393 C63.4094943,175.763844 63.5703599,174.407945 63.3307801,173.064015 C63.3149685,170.98896 63.299157,168.913562 63.2833454,166.838849 C63.4703345,166.635379 63.4720532,166.432934 63.2788769,166.231516 C63.2788769,165.351293 63.2788769,164.471412 63.2785331,163.591531 C63.4720532,163.390454 63.471022,163.187668 63.2823142,162.983514 C63.3022505,162.222295 63.3218431,161.461077 63.3417795,160.699858 C63.4534917,160.096628 63.7439436,159.507077 63.4844274,158.874439 C63.5452677,158.229489 63.6064516,157.584197 63.6672918,156.939248 C63.6872282,156.931724 63.7250385,156.919072 63.7240073,156.916336 C63.7143828,156.880087 63.6996024,156.845207 63.6858532,156.810326 C64.7551974,147.443509 67.5507537,138.701808 73.1580217,130.984298 C74.6199056,128.972164 76.2945583,127.147087 78.1891982,125.526505 C78.7068557,125.313118 78.7250734,124.881214 78.7539467,124.40075 C78.911375,121.825397 79.0364928,119.245598 79.2960089,116.67982 C79.5242457,114.42318 79.7284213,112.169618 79.7885741,109.901693 C79.8047294,109.301883 79.6094907,109.023522 79.0333992,108.7797 C74.8443613,107.006601 71.2506638,104.428854 68.1251266,101.1022 C65.5684626,98.3808265 63.6126387,95.3010721 62.1995646,91.9279101 C60.789584,88.5626133 59.9852557,85.0126544 59.9629133,81.2947897 C59.9402271,77.565982 60.2801761,73.8658996 60.5372861,70.1593198 C60.7490238,67.1093165 61.0336323,64.0644428 61.2450263,61.0127297 C61.4990428,57.3389787 61.7644024,53.6638598 62.0854462,49.9952384 C62.1899401,48.8017737 62.1816906,47.6154903 62.2387498,46.4268132 C62.265217,45.8666713 62.1249752,45.7832314 61.5337595,46.0055099 C57.7884771,47.4140718 54.3257407,49.3735424 50.9059706,51.3976448 C48.3613372,52.9043512 46.0215669,54.7171181 43.7037952,56.5623717 C41.0931657,58.6411888 38.5378766,60.771643 36.2592902,63.2040539 C34.8620276,64.6960557 33.5850705,66.2995388 32.2472733,67.8472812 C30.2230471,70.1890709 28.4260265,72.6984244 26.6802217,75.24813 C26.4774209,75.5442734 26.4368608,75.9532659 26.0010111,76.2018758 C25.973169,75.2488139 26.5262306,74.56488 26.9308008,73.8915471 C29.2853516,69.9743156 31.9107616,66.2475598 34.9280238,62.7950614 C37.2942613,60.088051 39.881861,57.6009254 42.5852977,55.2488767 C45.0261247,53.1256038 47.6817829,51.2577803 50.4302483,49.5243499 C52.2520174,48.3756829 54.0964728,47.2759171 56.0144864,46.2975497 C56.9930858,45.7982779 57.9758099,45.3068714 58.9657524,44.8305115 C59.1723342,44.7309991 59.4053831,44.6950925 59.4899407,44.4430629 C60.2499278,44.5689067 61.0143834,44.6742326 61.7688708,44.8274338 C62.3889598,44.9529356 62.5463882,44.6968024 62.5866046,44.1192202 C62.8749941,39.971845 63.1926006,35.8268635 63.5043638,31.6815401 C63.5191442,31.4876449 63.5665789,31.2961434 63.6157323,31 C64.5169925,31.7697676 65.2821355,32.5662086 66.1576159,33.2426193 C69.4515808,35.7885632 73.18827,37.0623901 77.3264359,37.3503263 C85.0926722,37.8909761 92.8575337,38.4579573 100.617927,39.0758916 C102.838079,39.2526885 105.081949,39.2451652 107.274259,39.7075045 C112.705193,40.8527519 116.724085,45.7216773 116.685931,51.2259774 C116.663588,54.4719277 116.252487,57.7004378 116.027688,60.9374969 C116.005002,61.2651013 115.8132,61.661441 116.104339,61.9056054 C116.401666,62.1548993 116.690399,61.7930982 116.947509,61.6795652 C118.911926,60.812679 120.925153,60.7015397 122.993377,61.1926043 C123.300328,61.2654432 123.606247,61.3588002 123.909074,61.1802935 C124.42295,61.8508907 125.244121,62.0984747 125.911301,62.5426898 C127.590766,63.6612637 128.652204,65.1843845 129.378506,66.9995451 C129.953223,68.4358063 130.17046,69.9879943 129.854916,71.4382762 C129.430409,73.3905655 128.6278,75.2347933 127.041142,76.6577178 C125.888615,77.6911419 124.603408,78.4000394 123.147712,78.8524617 C122.767202,78.9704403 122.566808,79.1339005 122.490156,79.5935041 C122.145051,81.6600104 122.089711,83.7579776 121.707826,85.8231161 C121.454841,87.1916678 121.159921,88.5461989 120.72854,89.8586681 C119.805968,92.6675846 118.493607,95.3092793 116.788706,97.7259598 C115.048745,100.191884 113.118357,102.503922 110.597784,104.254451 C110.018599,104.656604 109.490974,105.135016 108.961286,105.602827 C108.71655,105.818608 108.654335,106.158523 108.629586,106.461164 C108.493469,108.127227 108.387944,109.795683 108.26592,111.462772 C108.040777,114.542869 107.811852,117.622965 107.583272,120.702719 C107.478778,122.112991 107.371534,123.522921 107.265665,124.933535 C106.652795,124.839152 106.383654,125.315854 106.01655,125.655769 C101.654616,129.699186 98.8700594,134.719603 96.9468898,140.252286 C94.8958527,146.152584 94.065401,152.252591 94.121429,158.481519 C94.143084,160.932054 94.0530267,163.392506 94.2486091,165.830046 C94.4809706,168.725139 94.1475525,171.616811 94.3981317,174.507116 C94.4930011,175.605172 94.3596339,176.72272 94.3304168,177.831377 C94.1135232,177.883356 93.8966295,177.97979 93.6793922,177.980816 C91.581264,177.992443 89.4831359,177.990391 87.3850078,177.983552 C87.2200174,177.98321 87.055027,177.918578 86.8903803,177.883356 C86.7037349,176.072983 86.5236203,174.262268 86.3290691,172.45292 C85.7873506,167.419167 85.1497314,162.393962 84.7142254,157.35166 C83.9384268,148.366478 85.6003615,139.788579 89.407859,131.617621 C89.9873879,130.374229 90.4981707,129.136992 92.0308629,128.586426 C94.2891692,127.774938 93.93169,128.205474 93.4800287,125.724504 C93.4054393,125.314144 93.2167315,125.228652 92.8437844,125.237543 C91.7850959,125.261823 90.716783,125.346631 89.6687501,125.243699 C87.5438111,125.035099 85.7870069,125.587033 84.3402472,127.219926 C83.8793052,127.740399 83.6837228,128.019444 84.2006928,128.579244 C84.5719212,128.980713 84.9139326,129.387312 84.3426533,130.03192 C80.2777019,134.617355 77.1676326,139.785501 75.0107266,145.514132 C73.5615608,149.363312 72.5059659,153.318502 72.1130824,157.414582 C71.608143,162.682925 71.1746995,167.958107 70.7694418,173.234999 C70.648105,174.81557 70.3342795,176.391012 70.5033947,177.989365" id="Fill-51" fill="#FDFDFD"></path>
                <path d="M103.671715,69.5739563 C102.076308,69.5394176 100.879754,68.3049142 100.894526,66.7079251 C100.908955,65.1239307 102.131619,63.934909 103.75176,63.9294375 C105.289107,63.924308 106.577388,65.237122 106.554714,66.7865776 C106.532727,68.3138054 105.195664,69.6067852 103.671715,69.5739563 M98.4749641,90.5964206 C98.0317957,93.9470201 95.8108007,97.6618152 91.9311879,98.5232318 C91.3399532,98.6545474 90.7442524,98.7003711 90.1409938,98.6702779 C86.5791567,98.3898644 83.0107924,98.1655336 79.4561698,97.8074934 C76.390063,97.4990385 73.804227,94.964032 72.969765,91.6664375 C72.7310037,90.7219227 72.6523327,89.7620194 72.588434,88.7939088 C72.5423995,88.0894554 72.8337226,87.9102643 73.4857641,87.9683988 C75.1371675,88.1161289 76.793037,88.2166674 78.4458146,88.3486669 C83.5182031,88.7545825 88.590248,89.1652857 93.6619494,89.5763309 C95.0581016,89.6895222 96.4528796,89.818786 97.8500623,89.9220603 C98.2966661,89.9548892 98.5426418,90.0848369 98.4749641,90.5964206 M69.1890921,67.0167219 C67.6448736,66.9750018 66.3435388,65.6399599 66.3830461,64.1376958 C66.4249581,62.56909 67.6871292,61.3568145 69.2691372,61.3667316 C70.8346553,61.3759647 72.0724349,62.6446649 72.0538837,64.2201101 C72.0360195,65.7740113 70.720256,67.0581 69.1890921,67.0167219 M62.2756654,46.4265048 C62.2186375,47.6151845 62.2268825,48.8014705 62.1224459,49.9949378 C61.8019218,53.6635672 61.5367078,57.339036 61.2824872,61.012453 C61.0712093,64.0641728 60.786757,67.1090532 60.5751355,70.1590631 C60.3181666,73.8656509 59.9784041,77.5657414 60.0010779,81.2945572 C60.0234081,85.01243 60.8276384,88.5623967 62.2365016,91.9280428 C63.6488002,95.3008702 65.6035507,98.3806313 68.1588115,101.10201 C71.2826333,104.428672 74.8747019,107.006424 79.0614407,108.779527 C79.6372161,109.023008 79.832004,109.301712 79.8162011,109.901865 C79.7557379,112.169795 79.5516743,114.422678 79.3235628,116.679665 C79.0645326,119.245448 78.93914,121.825253 78.7821416,124.400611 C78.7529406,124.881076 78.7347329,125.313323 78.2177031,125.526369 C76.324103,127.146954 74.6500259,128.972036 73.1889444,130.984174 C67.5847538,138.701701 64.7907318,147.443763 63.7219746,156.8106 C63.7357162,156.845481 63.7504885,156.880361 63.7604512,156.916268 C63.7611383,156.919004 63.7233487,156.931657 63.7037669,156.939522 C63.6426165,157.584131 63.5818097,158.229424 63.5206593,158.874717 C63.7800331,159.507015 63.4897406,160.096568 63.3780896,160.700141 C63.3585078,161.461019 63.3385824,162.222239 63.3190005,162.983459 C63.5072612,163.187614 63.5086354,163.3904 63.314878,163.591478 C63.3152216,164.47136 63.3152216,165.351585 63.3152216,166.231468 C63.5086354,166.432887 63.5065741,166.635674 63.3196876,166.839145 C63.3354905,168.913863 63.3512934,170.988923 63.3674399,173.063983 C63.6065447,174.407916 63.4461108,175.763818 63.4784037,177.113906 C63.4935195,177.75407 63.713386,178.011571 64.3922238,177.999603 C66.4393869,177.96438 68.4879241,177.988318 70.5357743,177.989343 C70.3670955,176.390986 70.6807488,174.815541 70.8020189,173.234967 C71.2067106,167.958063 71.6402598,162.682869 72.1449221,157.414857 C72.5372464,153.318426 73.592262,149.363227 75.040976,145.514039 C77.1963546,139.785396 80.304717,134.61758 84.3677809,130.031794 C84.9387467,129.387184 84.596923,128.980585 84.2258983,128.579115 C83.7092121,128.019656 83.9043436,127.740268 84.3653761,127.219793 C85.8109982,125.586897 87.5671818,125.035303 89.690611,125.243904 C90.7384122,125.346836 91.8057953,125.262028 92.8639028,125.237064 C93.2366452,125.228515 93.4252494,125.314007 93.5001414,125.72471 C93.9515548,128.205686 94.3084943,127.774807 92.0514274,128.585954 C90.5195764,129.136864 90.0090739,130.374103 89.4298631,131.61784 C85.6244553,139.788816 83.9634327,148.366392 84.7388056,157.351593 C85.1740725,162.394249 85.8113418,167.419464 86.352763,172.452886 C86.5472074,174.262238 86.7272231,176.072957 86.9141096,177.883675 C87.0786659,177.918556 87.2432222,177.983188 87.4081221,177.983872 C89.5050987,177.990369 91.6024188,177.992421 93.6993954,177.980794 C93.9165135,177.979768 94.1329446,177.883675 94.3500628,177.831354 C94.3792638,176.722695 94.5122143,175.605145 94.4173969,174.507086 C94.1669552,171.616433 94.5001903,168.725097 94.2679564,165.829998 C94.0728249,163.392794 94.1628327,160.931995 94.1408461,158.481454 C94.0848488,152.252513 94.9151883,146.152493 96.9650998,140.252524 C98.8868702,134.719487 101.669899,129.699059 106.029783,125.655633 C106.396341,125.315717 106.665334,124.839014 107.278212,124.933397 C107.383679,123.523122 107.490864,122.112848 107.595301,120.702573 C107.823756,117.622812 108.052554,114.542709 108.277574,111.462606 C108.399531,109.795513 108.504998,108.127053 108.641041,106.461328 C108.666119,106.158345 108.7283,105.818429 108.972558,105.602647 C109.502299,105.135177 110.029291,104.656422 110.608159,104.254268 C113.127348,102.503736 115.057019,100.192034 116.795682,97.7257631 C118.499648,95.3090774 119.811289,92.6677189 120.733697,89.8584543 C121.164498,88.5459822 121.459257,87.1917902 121.712103,85.8232354 C122.094121,83.7580925 122.149431,81.6597787 122.494347,79.5932679 C122.570957,79.1336633 122.771241,78.9705447 123.151541,78.8522239 C124.606096,78.3998006 125.890597,77.6909016 127.042491,76.6574752 C128.628278,75.2348896 129.430447,73.3906578 129.855064,71.4383642 C130.170435,69.9877372 129.952974,68.4355459 129.378916,66.9992815 C128.65267,65.184117 127.591814,63.6609929 125.913614,62.5424165 C125.2468,62.0982005 124.42608,61.8509578 123.912142,61.1803592 C123.609482,61.3585244 123.30373,61.2655091 122.996948,61.19267 C120.929859,60.7012624 118.917737,60.8124019 116.954742,61.6792901 C116.697773,61.7928233 116.408855,62.1549671 116.111691,61.9053307 C115.820712,61.6611658 116.012408,61.2648252 116.035082,60.9372202 C116.259758,57.7001539 116.670633,54.4716369 116.692964,51.2260215 C116.731097,45.7213674 112.714411,40.8524313 107.286457,39.7071815 C105.095694,39.2451832 102.852712,39.2523645 100.633778,39.0755672 C92.8776444,38.4576316 85.1173882,37.8906491 77.3554142,37.3503402 C73.219176,37.0620614 69.4848812,35.7882317 66.1923806,33.2422822 C65.3173807,32.5658701 64.5526576,31.7697693 63.6522357,31 C63.6027657,31.2958021 63.555357,31.487304 63.5409283,31.6811997 C63.2289927,35.8265321 62.9115604,39.9718645 62.6233292,44.1189068" id="Fill-53" fill="#FABF9C"></path>
                <path d="M108.324273,125.084841 C108.324273,125.084841 88.1736785,124.723605 75.3188772,125.491914 C62.4637345,126.260224 60.1874061,144.732485 60.1874061,144.732485 L57,166.81402 L59.0898784,178 L97.9646906,177.968187 L112,151.448862 L108.324273,125.084841 Z" id="Fill-55" fill="#FDFDFD"></path>
                <path d="M125.031824,49.402282 L125,49.360446 C125,49.360446 125.026129,49.3144611 125.026129,49.3141153 C125.021774,49.2456565 125.01742,49.1775434 125.01273,49.1094304 C125.046564,48.4047887 124.981575,47.6921947 125.174531,47 C128.531479,48.9116605 131.743376,51.0328464 134.763994,53.4928689 C137.300883,55.5587345 139.721196,57.736278 141.964968,60.1271501 C143.647295,61.9198721 145.158776,63.865762 146.717826,65.7711989 C148.08191,67.4380672 149.319369,69.1951768 150.437905,71.0141758 C151.97719,73.5167257 153.55299,76.0154724 154.720434,78.7479471 C155.390752,80.316622 156.159892,81.8410407 156.803411,83.4204339 C157.255649,84.5306422 157.571546,85.6999741 158,87 C157.343752,86.5674648 157.263689,85.9579047 157.070064,85.4659003 C156.266755,83.4225084 155.333804,81.4479212 154.282266,79.5307287 C153.546625,78.1895583 152.809979,76.8483879 152.070318,75.5092921 C151.243224,74.011842 150.195706,72.6692886 149.236961,71.2655372 C146.634413,67.4550091 143.681464,63.9459763 140.400558,60.7456997 C136.715653,57.1505748 132.725236,53.9502982 128.368673,51.2582764 C127.285981,50.5889014 126.311156,49.6996283 125.031824,49.402282" id="Fill-57" fill="#FDFDFD"></path>
                <path d="M124.132202,49 C124.138702,49.0985 124.145202,49.197 124.152202,49.2955 C123.984702,49.2085 123.924702,49.113 124.132202,49" id="Fill-59" fill="#9AD3E2"></path>
                <path d="M122.906065,151.120571 C122.917544,149.962324 122.210847,149.237437 121.054301,149.222842 C120.025823,149.209744 119.221192,150.004238 119.204332,151.049093 C119.185678,152.216321 119.907083,153.053478 120.953498,153.0793 C122.033993,153.106244 122.894944,152.242892 122.906065,151.120571 L122.906065,151.120571 Z M123.635722,149.19702 C123.424071,149.422682 123.637874,149.598945 123.710696,149.778576 C124.439994,151.573766 123.763429,153.342759 121.985923,154.011136 C121.275279,154.278338 121.282812,154.532815 121.717952,155.027924 C121.960094,155.302984 122.162418,155.622204 122.429313,155.865454 C122.783738,156.188042 122.770824,156.404348 122.432542,156.756126 C122.068431,157.134848 121.855704,157.040542 121.576612,156.692132 C120.603019,155.475131 119.647363,154.24054 118.627135,153.067324 C117.488168,151.757139 118.051374,149.693251 119.116084,148.752059 C120.286978,147.716934 121.91059,147.744627 123.095474,148.87069 C123.2465,149.014395 123.322909,149.350829 123.646125,149.207873 L123.635722,149.19702 Z" id="Fill-61" fill="#9AD3E2"></path>
                <path d="M126.39607,145.883415 C126.369316,145.840158 126.350794,145.773557 126.31718,145.764287 C126.277392,145.753645 126.22457,145.793125 126.177237,145.810634 C126.212908,145.865563 126.24858,145.920492 126.284252,145.975422 C126.32061,145.945554 126.356968,145.915343 126.39607,145.883415 L126.39607,145.883415 Z M123.359156,149.310317 C123.759436,148.963919 123.352639,148.766517 123.19143,148.571518 C122.210795,147.387791 121.235649,146.197542 120.202879,145.060506 C119.79814,144.614892 120.079056,144.453194 120.352426,144.184727 C120.679304,143.864077 120.859379,143.997624 121.096391,144.304884 C121.513478,144.845938 121.97687,145.351288 122.422769,145.870369 C122.691337,146.183123 122.890962,146.341045 123.149584,145.808574 C123.798195,144.474135 124.54902,144.298705 125.799938,145.124704 C126.109323,145.328629 126.410819,145.54457 126.710943,145.761884 C126.898221,145.897491 127.155127,145.939374 126.87867,146.314953 C126.646459,146.630454 126.555222,146.667531 126.249609,146.464979 C125.968007,146.278563 125.630496,146.17969 125.32557,146.025545 C124.87041,145.795528 124.436516,145.612888 124.028004,146.119611 C123.611603,146.636633 123.583135,147.183866 123.970038,147.689216 C124.55931,148.458569 125.173964,149.21419 125.840068,149.916256 C126.233831,150.330972 126.000592,150.518075 125.729623,150.809543 C125.381136,151.183749 125.20209,150.933821 124.987716,150.679773 C124.601842,150.2218 124.216654,149.762453 123.813287,149.320273 C123.692551,149.187756 123.515564,148.993787 123.349209,149.300704 L123.359156,149.310317 Z" id="Fill-63" fill="#9AD3E2"></path>
                <path d="M114.35251,159.999219 C113.754726,160.008392 113.464459,159.94189 113.439333,159.523881 C113.415706,159.127166 113.609967,159.005628 114.038617,158.994163 C114.546771,158.980731 114.897791,158.753054 114.768033,158.264285 C114.631526,157.748653 114.121122,157.774205 113.708973,157.893776 C113.101439,158.070349 112.523156,158.246595 111.913746,157.94095 C111.248458,157.607132 110.84006,156.759648 111.059823,156.183084 C111.328338,155.479086 112.213763,154.941832 113.004308,155.005058 C113.315201,155.029955 113.549589,155.133802 113.561965,155.445344 C113.572465,155.720522 113.473835,155.927889 113.113814,155.963269 C112.959306,155.978338 112.795046,155.977683 112.654038,156.025839 C112.325144,156.138531 112.15676,156.362933 112.246015,156.671526 C112.32627,156.948997 112.584284,157.064965 112.891802,157.029258 C113.199319,156.99355 113.502711,156.919841 113.801978,156.844822 C114.512269,156.665956 115.096927,156.82746 115.545453,157.334247 C116.02248,157.873466 116.158237,158.465427 115.787716,159.090148 C115.444947,159.66835 114.822786,159.888165 114.35251,159.999219" id="Fill-65" fill="#9AD3E2"></path>
                <path d="M118.539741,156.998098 C118.114069,157.021104 117.709611,156.835907 117.38201,156.415668 C116.892348,155.78761 116.383907,155.176806 115.885551,154.557184 C115.809041,154.462093 115.742269,154.271145 115.67028,154.270762 C114.430128,154.263093 114.565063,153.009277 114.138696,152.260439 C113.858044,151.768115 114.043058,151.329471 114.340751,151.077941 C114.666265,150.802255 114.798418,151.331005 114.956306,151.531539 C115.315901,151.988587 115.642459,152.228998 116.088997,151.681076 C116.308093,151.412292 116.51919,151.271957 116.786626,151.645417 C116.993202,151.933373 117.120486,152.220562 116.799494,152.458672 C116.086215,152.987805 116.448592,153.443703 116.83288,153.927208 C117.156307,154.334027 117.468953,154.751583 117.780904,155.169521 C118.175277,155.698271 118.614164,156.021886 119.155644,155.421051 C119.464465,155.079032 119.580273,155.311007 119.7399,155.564837 C119.900222,155.819818 120.182612,156.05141 119.832407,156.366972 C119.473507,156.68982 119.114955,157.022637 118.539741,156.998098" id="Fill-67" fill="#9AD3E2"></path>
                <path d="M118,158.284555 C117.86811,158.618393 117.533219,158.761263 117.227726,158.931211 C116.914288,159.10579 116.733535,158.915535 116.574631,158.722428 C115.539371,157.465101 114.361098,156.316796 113.185605,155.168135 C112.838002,154.82824 113.03703,154.626583 113.306372,154.447015 C113.55029,154.283837 113.742166,153.739078 114.151344,154.150587 C115.442042,155.449243 116.683877,156.787804 117.940808,158.113895 C117.979342,158.154155 117.980137,158.22363 118,158.284555" id="Fill-69" fill="#9AD3E2"></path>
                <path d="M109.525926,163.922304 C109.743123,163.552506 109.925213,163.21151 110.25853,162.910573 C111.410867,161.871695 111.219904,160.717276 109.836868,159.942918 C109.486576,159.747259 108.810682,159.540676 109.050254,159.175181 C109.278639,158.825578 109.904766,159.079835 110.350347,159.244705 C111.454847,159.653237 112.092162,160.705358 111.989158,161.935922 C111.901199,162.989697 110.980718,163.646528 109.83764,163.995469 C109.767041,164.016988 109.662494,163.956734 109.525926,163.922304" id="Fill-71" fill="#9AD3E2"></path>
                <path d="M112,152.513519 C111.888408,152.783667 111.711994,153.013495 111.413868,152.999383 C111.127503,152.985558 110.974064,152.758323 111.003603,152.456494 C111.032869,152.156681 111.222138,151.998854 111.50905,152.000006 C111.817842,152.001446 111.918768,152.24049 112,152.513519" id="Fill-73" fill="#9AD3E2"></path>
                <path d="M129,146.715452 C128.980141,146.881659 128.937586,147.048698 128.615117,146.986822 C127.992872,146.866953 127.248638,146.819505 127.007968,146.38165 C126.970142,146.313669 127.059506,145.89496 127.438243,146.024818 C127.9924,146.215166 128.848222,146.230427 129,146.715452" id="Fill-75" fill="#9AD3E2"></path>
                <path d="M63.2566358,159 C63.6341358,159.692769 63.2116358,160.339078 63.0491358,161 C62.9426358,160.322967 63.0081358,159.656051 63.2566358,159" id="Fill-77" fill="#9AD3E2"></path>
                <path d="M63.1116915,163 C63.3861915,163.335771 63.3876915,163.669291 63.1061915,164 C62.9646915,163.665354 62.9626915,163.331834 63.1116915,163" id="Fill-79" fill="#9AD3E2"></path>
                <path d="M63.1058779,166 C63.3868779,166.331644 63.3843779,166.664977 63.1123779,167 C62.9618779,166.667793 62.9653779,166.334459 63.1058779,166" id="Fill-81" fill="#9AD3E2"></path>
                <path d="M64.0765,157 C64.0965,157.0515 64.118,157.102 64.1325,157.155 C64.1335,157.159 64.0785,157.1775 64.05,157.1885 C64.05,157.188 64,157.085 64,157.085 L64.0765,157 Z" id="Fill-83" fill="#9AD3E2"></path>
                <path d="M71.0481813,177 C70.8816829,175.4255 71.1906525,173.873569 71.3101117,172.316586 C71.7090987,167.118444 72.1358354,161.921987 72.6329617,156.732267 C73.0197659,152.697315 74.0590271,148.801488 75.4857694,145.009415 C77.6093007,139.366276 80.6712466,134.275257 84.6732993,129.758254 C85.235739,129.123266 84.8990197,128.722735 84.5335354,128.327257 C84.0245647,127.775812 84.2171208,127.500931 84.6709304,126.988225 C86.0953038,125.379701 87.8249243,124.836003 89.9169833,125.04149 C90.9487995,125.143223 92.000582,125.059681 93.042889,125.035426 C93.4100653,125.026668 93.5958531,125.110884 93.6692884,125.515457 C94.1139609,127.959065 94.4659087,127.534954 92.2425461,128.334331 C90.7335699,128.876682 90.2306906,130.095454 89.6601291,131.32029 C85.9115465,139.369645 84.2749891,147.819194 85.039122,156.670284 C85.4678892,161.637674 86.0956422,166.587547 86.6289785,171.546179 C86.8205194,173.328524 86.9978469,175.112217 87.1816043,176.895572 C86.0570633,176.918479 84.9325224,176.958903 83.8079815,176.959576 C79.8059288,176.962271 75.8042145,176.950481 71.8025002,176.948123 C71.5510606,176.947786 71.2996209,176.981809 71.0481813,177" id="Fill-85" fill="#3191CE"></path>
                <path d="M90.6236575,97.9920279 C87.0480188,97.7298422 83.4665178,97.5206041 79.8984655,97.1869712 C76.8207747,96.8989497 74.2251693,94.5344944 73.3875546,91.4587569 C73.1478913,90.5777875 73.0685782,89.682465 73.004783,88.7794874 C72.9582296,88.1224284 73.2509982,87.955293 73.9055032,88.0095164 C75.5631457,88.1473074 77.2252712,88.2410818 78.8842931,88.3642006 C83.9758454,88.7428069 89.066708,89.1261976 94.1579155,89.5092693 C95.5593425,89.6148453 96.95939,89.7354124 98.3615066,89.8317386 C98.8097977,89.8623588 99.0570475,89.9835638 98.9887693,90.460729 C98.5442715,93.5862244 96.3145405,97.050775 92.4202703,97.8542369 C91.8268018,97.9767178 91.2291953,98.0194585 90.6236575,97.9920279" id="Fill-87" fill="#781123"></path>
                <path d="M101.000137,66.9531595 C101.015794,65.2695951 102.311687,64.0058313 104.0285,64.0000159 C105.658289,63.994564 107.023364,65.3899016 106.999697,67.0367562 C106.976393,68.6599856 105.558885,70.0342423 103.943661,69.9993498 C102.2527,69.9630034 100.984844,68.6505355 101.000137,66.9531595" id="Fill-89" fill="#0F0E1B"></path>
                <path d="M71.9997823,64.0298293 C71.9805215,65.6795924 70.5890139,67.0428979 68.969283,66.9989671 C67.3357425,66.9546733 65.9591348,65.5369082 66.0009273,63.9423309 C66.0449002,62.2769561 67.3804423,60.989894 69.0539582,61.0000598 C70.7096669,61.0105887 72.0194066,62.3571932 71.9997823,64.0298293" id="Fill-91" fill="#0F0E1B"></path>
                <path d="M122.999851,150.968136 C122.987836,152.131997 122.057637,153.027305 120.890237,152.999363 C119.759657,152.972586 118.980228,152.104443 119.000382,150.894012 C119.018598,149.810483 119.887947,148.986583 120.999148,149.000166 C122.248715,149.015301 123.012254,149.767018 122.999851,150.968136" id="Fill-93" fill="#312D38"></path>
                <path d="M126.319,146.176111 C126.262,146.222611 126.209,146.266611 126.156,146.310111 C126.104,146.230111 126.052,146.150111 126,146.070111 C126.069,146.044611 126.146,145.987111 126.204,146.002611 C126.253,146.016111 126.28,146.113111 126.319,146.176111" id="Fill-95" fill="#312D38"></path>
                <path d="M136.722534,153.742304 C136.644815,147.12995 134.206877,141.329723 130.194883,136.190459 C125.873743,130.655709 120.090116,127.286063 113.189072,125.752917 C111.214681,125.314095 109.198494,125.300446 107.211668,125.012106 C106.595448,124.917927 106.324988,125.393602 105.95643,125.732784 C101.57277,129.767487 98.774564,134.777084 96.8419677,140.298185 C94.7812225,146.185425 93.9463547,152.272285 94.0026574,158.487789 C94.0247639,160.933043 93.9342652,163.388533 94.1304609,165.820479 C94.3639613,168.709332 94.0289089,171.594431 94.2807163,174.478848 C94.3760509,175.574196 94.2423753,176.689677 94.213015,177.795944 C94.5031635,178.066881 94.86654,177.968266 95.2005562,177.968266 C106.879033,177.969972 118.557856,177.965877 130.236333,177.964171 C130.32096,177.964171 130.405586,177.987716 130.490213,178 C132.639384,177.984645 134.788901,177.968948 136.938073,177.953593 C136.959488,177.727698 137.00232,177.501804 136.999902,177.276251 C136.909749,169.431716 136.814414,161.586839 136.722534,153.742304" id="Fill-97" fill="#13112B"></path>
                <path d="M94,93.5 C94,94.880602 91.7613115,96 89,96 C86.2386885,96 84,94.880602 84,93.5 C84,92.119398 86.2386885,91 89,91 C91.7613115,91 94,92.119398 94,93.5" id="Fill-99" fill="#C62727"></path>
                <path d="M40.4257126,174.415925 C40.9530469,171.885731 41.4412432,169.347095 42.0145819,166.827032 C43.7091928,159.378612 45.8559516,152.0683 49.6623029,145.361075 C52.0535032,141.147575 54.4989475,136.946231 58.226336,133.649179 C63.6229299,128.87649 69.9255364,126.331101 77.1667706,126.011661 C77.4482902,125.999167 77.739766,125.965737 78,126.12512 C76.1076388,127.725358 74.4350002,129.527526 72.9745313,131.514402 C67.3740073,139.135036 64.5818133,147.767342 63.5137553,157.016242 L63.4612278,157.073984 L63.4955595,157.143545 C63.4344491,157.780399 63.3736821,158.417591 63.3125717,159.054782 C63.1419434,159.64605 63.0969689,160.24711 63.1700953,160.85695 C63.1505263,161.608613 63.1306139,162.360276 63.1110449,163.111939 C63.0087365,163.311505 63.0101098,163.511408 63.1069251,163.711986 C63.1072684,164.58116 63.1072684,165.450334 63.1072684,166.31917 C63.0107964,166.519748 63.0083932,166.719652 63.1117315,166.918542 C63.1275241,168.967887 63.1433166,171.017233 63.1594525,173.06624 C63.1515562,174.498317 63.1227176,175.931069 63.1481231,177.362471 C63.1563627,177.853112 62.9943172,177.988181 62.5153905,177.975012 C61.4013281,177.944284 60.2862357,177.958128 59.1714867,177.96083 C54.6355875,177.972648 50.1000316,177.986831 45.5641324,178 C43.7136559,177.97974 41.8631793,177.959479 40.013046,177.939219 C40.0089262,177.66165 40.0041198,177.384082 40,177.106176 C40.0123594,176.97786 40.0250621,176.849881 40.0374215,176.721903 C40.1864209,176.531454 40.2221259,176.316018 40.1823011,176.084036 C40.2633238,175.527886 40.3446899,174.971737 40.4257126,174.415925" id="Fill-101" fill="#13112B"></path>
                <path d="M77,74.5 C77,76.98508 74.0900526,79 70.5,79 C66.9099474,79 64,76.98508 64,74.5 C64,72.01492 66.9099474,70 70.5,70 C74.0900526,70 77,72.01492 77,74.5" id="Fill-103" fill="#F3B997"></path>
                <path d="M109,76.5 C109,78.98544 106.090053,81 102.5,81 C98.9099474,81 96,78.98544 96,76.5 C96,74.01492 98.9099474,72 102.5,72 C106.090053,72 109,74.01492 109,76.5" id="Fill-105" fill="#F3B997"></path>
                <path d="M109,106 C109,106 91.8640014,114.760084 79.5132424,109.553603 L78,126 L108.370117,113.159383 L109,106 Z" id="Fill-107" fill="#EDB296"></path>
            </g>
        </g>
    </g>
</svg>